<svg width="260" height="36" viewBox="0 0 260 36" fill="none" xmlns="http://www.w3.org/2000/svg">
<g clip-path="url(#clip0_157_1422)">
<g clip-path="url(#clip1_157_1422)">
<path d="M2.73684 0H0V36H2.73684V0Z" fill="white"/>
<path d="M8.21145 0H5.47461V36H8.21145V0Z" fill="white"/>
<path d="M21.8956 0H16.4219V36H21.8956V0Z" fill="white"/>
<path d="M27.3677 0H24.6309V36H27.3677V0Z" fill="white"/>
<path d="M41.0518 0H35.5781V36H41.0518V0Z" fill="white"/>
<path d="M46.5259 0H43.7891V36H46.5259V0Z" fill="white"/>
<path d="M57.4737 0H52V36H57.4737V0Z" fill="white"/>
<path d="M65.6841 0H62.9473V36H65.6841V0Z" fill="white"/>
<path d="M73.895 0H71.1582V36H73.895V0Z" fill="white"/>
<path d="M84.8428 0H79.3691V36H84.8428V0Z" fill="white"/>
<path d="M98.5255 0H87.5781V36H98.5255V0Z" fill="white"/>
<path d="M104.001 0H101.264V36H104.001V0Z" fill="white"/>
<path d="M114.946 0H109.473V36H114.946V0Z" fill="white"/>
<path d="M123.157 0H120.42V36H123.157V0Z" fill="white"/>
<path d="M128.632 0H125.895V36H128.632V0Z" fill="white"/>
<path d="M134.104 0H131.367V36H134.104V0Z" fill="white"/>
<path d="M142.315 0H136.842V36H142.315V0Z" fill="white"/>
<path d="M150.526 0H145.053V36H150.526V0Z" fill="white"/>
<path d="M158.737 0H156V36H158.737V0Z" fill="white"/>
<path d="M169.685 0H161.475V36H169.685V0Z" fill="white"/>
<path d="M177.895 0H175.158V36H177.895V0Z" fill="white"/>
<path d="M191.579 0H188.842V36H191.579V0Z" fill="white"/>
<path d="M199.79 0H194.316V36H199.79V0Z" fill="white"/>
<path d="M207.999 0H202.525V36H207.999V0Z" fill="white"/>
<path d="M216.211 0H213.475V36H216.211V0Z" fill="white"/>
<path d="M229.894 0H221.684V36H229.894V0Z" fill="white"/>
<path d="M240.841 0H232.631V36H240.841V0Z" fill="white"/>
<path d="M246.315 0H243.578V36H246.315V0Z" fill="white"/>
<path d="M254.526 0H251.789V36H254.526V0Z" fill="white"/>
<path d="M260.001 0H257.264V36H260.001V0Z" fill="white"/>
</g>
</g>
<defs>
<clipPath id="clip0_157_1422">
<rect width="260" height="36" fill="white"/>
</clipPath>
<clipPath id="clip1_157_1422">
<rect width="260" height="36" fill="white"/>
</clipPath>
</defs>
</svg>
