<svg width="259" height="128" viewBox="0 0 259 128" fill="none" xmlns="http://www.w3.org/2000/svg">
<g clip-path="url(#clip0_87_455)">
<path fill-rule="evenodd" clip-rule="evenodd" d="M206.847 55.6104C206.698 55.2839 206.564 54.9575 206.445 54.6269C206.267 54.1311 206.156 53.6131 206.005 53.11C205.941 52.8966 205.765 52.3426 205.754 52.2591C205.66 51.5308 206.198 51.2712 206.359 51.2075C206.436 51.1745 207.236 50.8614 207.659 51.7281C208.177 52.7876 208.548 53.8945 208.766 55.0179C209.198 55.907 209.756 56.758 210.389 57.4942C212.909 60.422 216.082 59.9219 219.416 58.9956C219.928 58.8502 220.463 59.1392 220.626 59.643C220.791 60.1506 220.528 60.6988 220.029 60.882C218.209 61.5632 215.295 63.9497 214.567 65.8166C214.415 66.2074 214.487 67.0323 214.509 67.854C214.539 68.9948 214.517 70.1372 214.293 70.6748C214.26 70.7577 213.824 71.6323 213.665 71.7861C213.282 72.1522 212.885 72.1063 212.646 72.0303C212.407 71.9544 212.107 71.7588 211.901 71.3571C211.685 70.9373 211.521 70.0011 211.454 69.8091C211.209 69.113 210.693 67.7565 210.082 66.6356C209.752 66.032 209.426 65.4812 209.071 65.2593C207.756 64.438 206.167 65.0369 204.84 65.5859C204.687 65.6474 204.536 65.7128 204.383 65.7742C203.868 66.0894 203.306 66.3716 202.698 66.6129C201.779 66.9784 201.389 66.1481 201.366 66.0928C201.314 65.9707 201.073 65.3352 201.718 64.8824C201.789 64.8346 202.33 64.5536 202.539 64.4443C202.829 64.2923 203.127 64.1549 203.427 64.0209C206.396 62.1467 207.397 58.8478 206.847 55.6104ZM208.894 58.8048C210.794 61.0052 212.977 61.7298 215.324 61.6938L215.324 61.6939C214.143 62.7803 213.135 64.0139 212.715 65.0941C212.555 65.5034 212.509 66.2528 212.508 67.0807C212.203 66.3925 211.846 65.6687 211.47 65.0694C211.042 64.3853 210.568 63.8493 210.126 63.5725C209.272 63.0394 208.334 62.8667 207.387 62.9105C208.204 61.6746 208.699 60.2737 208.894 58.8048Z" fill="#A8ACB4"/>
</g>
<g clip-path="url(#clip1_87_455)">
<path fill-rule="evenodd" clip-rule="evenodd" d="M182.779 9.9756C182.705 9.8135 182.638 9.65143 182.58 9.4873C182.491 9.24114 182.436 8.98395 182.361 8.73415C182.329 8.6282 182.242 8.35314 182.236 8.3117C182.19 7.95011 182.457 7.8212 182.537 7.78959C182.575 7.77318 182.972 7.61774 183.182 8.04806C183.439 8.5741 183.624 9.12369 183.732 9.68141C183.946 10.1229 184.223 10.5454 184.538 10.9109C185.789 12.3646 187.364 12.1163 189.02 11.6564C189.274 11.5842 189.539 11.7277 189.621 11.9778C189.702 12.2298 189.572 12.502 189.324 12.5929C188.42 12.9312 186.974 14.1161 186.612 15.043C186.537 15.237 186.572 15.6466 186.583 16.0545C186.598 16.621 186.587 17.1882 186.476 17.4551C186.46 17.4963 186.243 17.9305 186.164 18.0068C185.974 18.1886 185.777 18.1658 185.658 18.1281C185.54 18.0904 185.391 17.9933 185.288 17.7938C185.181 17.5854 185.1 17.1206 185.066 17.0253C184.945 16.6797 184.689 16.0062 184.385 15.4496C184.222 15.15 184.06 14.8765 183.883 14.7663C183.231 14.3585 182.441 14.6559 181.783 14.9284C181.707 14.959 181.632 14.9914 181.556 15.0219C181.3 15.1784 181.021 15.3185 180.719 15.4383C180.263 15.6198 180.069 15.2076 180.058 15.1801C180.032 15.1195 179.912 14.804 180.233 14.5792C180.268 14.5554 180.537 14.4159 180.64 14.3616C180.784 14.2862 180.932 14.2179 181.081 14.1514C182.555 13.2209 183.052 11.583 182.779 9.9756ZM183.796 11.5617C184.739 12.6541 185.822 13.0139 186.988 12.996L186.988 12.9961C186.402 13.5354 185.901 14.148 185.693 14.6843C185.613 14.8875 185.59 15.2596 185.59 15.6706C185.438 15.3289 185.261 14.9695 185.074 14.672C184.862 14.3324 184.627 14.0662 184.407 13.9288C183.983 13.6641 183.518 13.5784 183.047 13.6001C183.453 12.9865 183.699 12.2909 183.796 11.5617Z" fill="#9EB3FB"/>
</g>
<g clip-path="url(#clip2_87_455)">
<path fill-rule="evenodd" clip-rule="evenodd" d="M68.1745 68.3372C68.11 68.196 68.0521 68.0549 68.0008 67.912C67.9238 67.6977 67.8759 67.4738 67.8107 67.2563C67.7829 67.1641 67.7068 66.9246 67.702 66.8885C67.6612 66.5737 67.8941 66.4615 67.9636 66.434C67.997 66.4197 68.3427 66.2844 68.5255 66.659C68.7493 67.117 68.9099 67.5955 69.0042 68.081C69.1907 68.4654 69.432 68.8332 69.7058 69.1515C70.7949 70.4171 72.1663 70.2009 73.6076 69.8005C73.8289 69.7376 74.0601 69.8626 74.1309 70.0803C74.2022 70.2997 74.0884 70.5367 73.8725 70.6159C73.0858 70.9103 71.8265 71.942 71.5118 72.7489C71.446 72.9179 71.4769 73.2745 71.4867 73.6296C71.4995 74.1228 71.49 74.6166 71.3933 74.849C71.3791 74.8848 71.1904 75.2629 71.1217 75.3294C70.9562 75.4876 70.7845 75.4678 70.6812 75.4349C70.5779 75.4021 70.4482 75.3176 70.359 75.1439C70.2657 74.9624 70.195 74.5577 70.1658 74.4748C70.0599 74.1739 69.8369 73.5875 69.5727 73.103C69.4304 72.8421 69.2893 72.604 69.1358 72.5081C68.5676 72.153 67.8805 72.4119 67.307 72.6492C67.241 72.6758 67.1754 72.7041 67.1096 72.7306C66.8867 72.8669 66.644 72.9888 66.381 73.0931C65.9839 73.2512 65.8154 72.8923 65.8051 72.8683C65.7828 72.8156 65.6787 72.5409 65.9575 72.3451C65.9881 72.3245 66.2222 72.203 66.3122 72.1557C66.4378 72.0901 66.5665 72.0307 66.6963 71.9728C67.9795 71.1626 68.4123 69.7366 68.1745 68.3372ZM69.0594 69.718C69.8807 70.6692 70.8241 70.9824 71.8388 70.9668L71.8386 70.9669C71.3283 71.4364 70.8925 71.9697 70.711 72.4367C70.642 72.6136 70.622 72.9375 70.6216 73.2954C70.4897 72.9979 70.3354 72.685 70.1729 72.426C69.9878 72.1303 69.7831 71.8986 69.5919 71.7789C69.2229 71.5485 68.8174 71.4738 68.4079 71.4928C68.761 70.9585 68.975 70.3529 69.0594 69.718Z" fill="#FFDE33"/>
</g>
<g clip-path="url(#clip3_87_455)">
<path fill-rule="evenodd" clip-rule="evenodd" d="M43.1745 34.3372C43.11 34.196 43.0521 34.0549 43.0008 33.912C42.9238 33.6977 42.8759 33.4738 42.8107 33.2563C42.7829 33.1641 42.7068 32.9246 42.702 32.8885C42.6612 32.5737 42.8941 32.4615 42.9636 32.434C42.997 32.4197 43.3427 32.2844 43.5255 32.659C43.7493 33.117 43.9099 33.5955 44.0042 34.081C44.1907 34.4654 44.432 34.8332 44.7058 35.1515C45.7949 36.4171 47.1663 36.2009 48.6076 35.8005C48.8289 35.7376 49.0601 35.8626 49.1309 36.0803C49.2022 36.2997 49.0884 36.5367 48.8725 36.6159C48.0858 36.9103 46.8265 37.942 46.5118 38.7489C46.446 38.9179 46.4769 39.2745 46.4867 39.6296C46.4995 40.1228 46.49 40.6166 46.3933 40.849C46.3791 40.8848 46.1904 41.2629 46.1217 41.3294C45.9562 41.4876 45.7845 41.4678 45.6812 41.4349C45.5779 41.4021 45.4482 41.3176 45.359 41.1439C45.2657 40.9624 45.195 40.5577 45.1658 40.4748C45.0599 40.1739 44.8369 39.5875 44.5727 39.103C44.4304 38.8421 44.2893 38.604 44.1358 38.5081C43.5676 38.153 42.8805 38.4119 42.307 38.6492C42.241 38.6758 42.1754 38.7041 42.1096 38.7306C41.8867 38.8669 41.644 38.9888 41.381 39.0931C40.9839 39.2512 40.8154 38.8923 40.8051 38.8683C40.7828 38.8156 40.6787 38.5409 40.9575 38.3451C40.9881 38.3245 41.2222 38.203 41.3122 38.1557C41.4378 38.0901 41.5665 38.0307 41.6963 37.9728C42.9795 37.1626 43.4123 35.7366 43.1745 34.3372ZM44.0594 35.718C44.8807 36.6692 45.8241 36.9824 46.8388 36.9668L46.8386 36.9669C46.3283 37.4364 45.8925 37.9697 45.711 38.4367C45.642 38.6136 45.622 38.9375 45.6216 39.2954C45.4897 38.9979 45.3354 38.685 45.1729 38.426C44.9878 38.1303 44.7831 37.8986 44.5919 37.7789C44.2229 37.5485 43.8174 37.4738 43.4079 37.4928C43.761 36.9585 43.975 36.3529 44.0594 35.718Z" fill="#4EE03C"/>
<path fill-rule="evenodd" clip-rule="evenodd" d="M43.1745 34.3372C43.11 34.196 43.0521 34.0549 43.0008 33.912C42.9238 33.6977 42.8759 33.4738 42.8107 33.2563C42.7829 33.1641 42.7068 32.9246 42.702 32.8885C42.6612 32.5737 42.8941 32.4615 42.9636 32.434C42.997 32.4197 43.3427 32.2844 43.5255 32.659C43.7493 33.117 43.9099 33.5955 44.0042 34.081C44.1907 34.4654 44.432 34.8332 44.7058 35.1515C45.7949 36.4171 47.1663 36.2009 48.6076 35.8005C48.8289 35.7376 49.0601 35.8626 49.1309 36.0803C49.2022 36.2997 49.0884 36.5367 48.8725 36.6159C48.0858 36.9103 46.8265 37.942 46.5118 38.7489C46.446 38.9179 46.4769 39.2745 46.4867 39.6296C46.4995 40.1228 46.49 40.6166 46.3933 40.849C46.3791 40.8848 46.1904 41.2629 46.1217 41.3294C45.9562 41.4876 45.7845 41.4678 45.6812 41.4349C45.5779 41.4021 45.4482 41.3176 45.359 41.1439C45.2657 40.9624 45.195 40.5577 45.1658 40.4748C45.0599 40.1739 44.8369 39.5875 44.5727 39.103C44.4304 38.8421 44.2893 38.604 44.1358 38.5081C43.5676 38.153 42.8805 38.4119 42.307 38.6492C42.241 38.6758 42.1754 38.7041 42.1096 38.7306C41.8867 38.8669 41.644 38.9888 41.381 39.0931C40.9839 39.2512 40.8154 38.8923 40.8051 38.8683C40.7828 38.8156 40.6787 38.5409 40.9575 38.3451C40.9881 38.3245 41.2222 38.203 41.3122 38.1557C41.4378 38.0901 41.5665 38.0307 41.6963 37.9728C42.9795 37.1626 43.4123 35.7366 43.1745 34.3372ZM44.0594 35.718C44.8807 36.6692 45.8241 36.9824 46.8388 36.9668L46.8386 36.9669C46.3283 37.4364 45.8925 37.9697 45.711 38.4367C45.642 38.6136 45.622 38.9375 45.6216 39.2954C45.4897 38.9979 45.3354 38.685 45.1729 38.426C44.9878 38.1303 44.7831 37.8986 44.5919 37.7789C44.2229 37.5485 43.8174 37.4738 43.4079 37.4928C43.761 36.9585 43.975 36.3529 44.0594 35.718Z" fill="black" fill-opacity="0.2"/>
</g>
<g clip-path="url(#clip4_87_455)">
<path fill-rule="evenodd" clip-rule="evenodd" d="M4.17451 83.3372C4.11 83.196 4.05208 83.0549 4.0008 82.912C3.92379 82.6977 3.8759 82.4738 3.81069 82.2563C3.78294 82.1641 3.70685 81.9246 3.70199 81.8885C3.66124 81.5737 3.89407 81.4615 3.96358 81.434C3.99696 81.4197 4.34267 81.2844 4.52546 81.659C4.74928 82.117 4.90989 82.5955 5.00422 83.081C5.19068 83.4654 5.432 83.8332 5.70576 84.1515C6.79494 85.4171 8.16631 85.2009 9.60756 84.8005C9.82887 84.7376 10.0601 84.8626 10.1309 85.0803C10.2022 85.2997 10.0884 85.5367 9.87251 85.6159C9.08582 85.9103 7.82651 86.942 7.51178 87.7489C7.44598 87.9179 7.47692 88.2745 7.48665 88.6296C7.49953 89.1228 7.48999 89.6166 7.39331 89.849C7.37907 89.8848 7.19041 90.2629 7.12172 90.3294C6.95623 90.4876 6.78449 90.4678 6.68118 90.4349C6.57786 90.4021 6.44824 90.3176 6.35899 90.1439C6.26569 89.9624 6.19499 89.5577 6.16582 89.4748C6.05991 89.1739 5.83694 88.5875 5.57273 88.103C5.43038 87.8421 5.28933 87.604 5.13583 87.5081C4.56759 87.153 3.88048 87.4119 3.30703 87.6492C3.241 87.6758 3.17542 87.7041 3.10956 87.7306C2.88673 87.8669 2.64405 87.9888 2.38098 88.0931C1.98385 88.2512 1.81542 87.8923 1.8051 87.8683C1.78277 87.8156 1.67872 87.5409 1.95752 87.3451C1.98812 87.3245 2.22221 87.203 2.31225 87.1557C2.43776 87.0901 2.56654 87.0307 2.69627 86.9728C3.97949 86.1626 4.41225 84.7366 4.17451 83.3372ZM5.05945 84.718C5.88068 85.6692 6.82414 85.9824 7.8388 85.9668L7.83864 85.9669C7.32831 86.4364 6.89254 86.9697 6.71098 87.4367C6.64197 87.6136 6.62198 87.9375 6.62158 88.2954C6.48971 87.9979 6.33539 87.685 6.17289 87.426C5.98775 87.1303 5.78309 86.8986 5.5919 86.7789C5.22294 86.5485 4.8174 86.4738 4.40793 86.4928C4.76102 85.9585 4.97504 85.3529 5.05945 84.718Z" fill="#F25A1B"/>
</g>
<g clip-path="url(#clip5_87_455)">
<path fill-rule="evenodd" clip-rule="evenodd" d="M251.674 76.937C251.617 76.8128 251.566 76.6887 251.521 76.5629C251.453 76.3743 251.411 76.1773 251.354 75.9859C251.329 75.9047 251.262 75.694 251.258 75.6622C251.222 75.3852 251.427 75.2864 251.488 75.2622C251.518 75.2497 251.822 75.1306 251.983 75.4602C252.18 75.8633 252.321 76.2843 252.404 76.7116C252.568 77.0498 252.78 77.3736 253.021 77.6536C253.98 78.7673 255.187 78.5771 256.455 78.2247C256.65 78.1694 256.853 78.2793 256.915 78.471C256.978 78.6641 256.878 78.8726 256.688 78.9423C255.996 79.2014 254.888 80.1092 254.611 80.8193C254.553 80.968 254.58 81.2818 254.588 81.5943C254.6 82.0283 254.591 82.4629 254.506 82.6674C254.494 82.6989 254.328 83.0316 254.267 83.0901C254.122 83.2294 253.971 83.2119 253.88 83.183C253.789 83.1541 253.675 83.0797 253.596 82.9269C253.514 82.7672 253.452 82.4111 253.426 82.3381C253.333 82.0733 253.137 81.5573 252.904 81.1309C252.779 80.9013 252.655 80.6918 252.52 80.6074C252.02 80.295 251.415 80.5228 250.91 80.7316C250.852 80.755 250.795 80.7799 250.737 80.8032C250.541 80.9231 250.327 81.0305 250.096 81.1222C249.746 81.2613 249.598 80.9455 249.589 80.9244C249.569 80.878 249.478 80.6362 249.723 80.464C249.75 80.4458 249.956 80.3389 250.035 80.2973C250.145 80.2395 250.259 80.1873 250.373 80.1363C251.502 79.4234 251.883 78.1685 251.674 76.937ZM252.453 78.1522C253.175 78.9892 254.005 79.2648 254.898 79.2511L254.898 79.2511C254.449 79.6644 254.066 80.1336 253.906 80.5445C253.845 80.7002 253.828 80.9853 253.827 81.3002C253.711 81.0384 253.575 80.7631 253.432 80.5351C253.269 80.2749 253.089 80.071 252.921 79.9657C252.596 79.763 252.24 79.6972 251.879 79.7139C252.19 79.2438 252.378 78.7109 252.453 78.1522Z" fill="#F25A1B"/>
</g>
<circle cx="100" cy="36" r="2.5" stroke="#F25A1B"/>
<circle opacity="0.5" cx="119" cy="2" r="1.5" stroke="#F25A1B"/>
<path d="M120.581 43.6523C125.972 41.4195 132.028 41.4195 137.419 43.6523L150.87 49.2236C156.261 51.4565 160.543 55.7393 162.776 61.1299L168.348 74.5811C170.581 79.9717 170.581 86.0283 168.348 91.4189L162.776 104.87C160.543 110.261 156.261 114.543 150.87 116.776L137.419 122.348C132.028 124.581 125.972 124.581 120.581 122.348L107.13 116.776C101.739 114.544 97.4565 110.261 95.2236 104.87L89.6523 91.4189C87.4195 86.0283 87.4195 79.9717 89.6523 74.5811L95.2236 61.1299C97.4565 55.7393 101.739 51.4565 107.13 49.2236L120.581 43.6523Z" fill="#F25A1B" stroke="#F25A1B" stroke-width="4"/>
<path fill-rule="evenodd" clip-rule="evenodd" d="M141.763 69.0028C142.409 68.3627 143.28 68.0025 144.189 68C145.099 67.9975 145.972 68.3529 146.621 68.9894C147.271 69.6258 147.643 70.4922 147.659 71.4012C147.674 72.3102 147.331 73.1888 146.704 73.847L128.287 96.8687C127.97 97.2096 127.588 97.4832 127.164 97.6731C126.739 97.863 126.28 97.9654 125.815 97.974C125.35 97.9826 124.888 97.8973 124.456 97.7233C124.025 97.5492 123.633 97.2899 123.304 96.961L111.101 84.7535C110.761 84.4367 110.489 84.0547 110.3 83.6302C110.11 83.2058 110.009 82.7476 110.001 82.283C109.992 81.8184 110.078 81.3569 110.252 80.9261C110.426 80.4952 110.685 80.1038 111.013 79.7753C111.342 79.4467 111.733 79.1877 112.164 79.0136C112.595 78.8396 113.057 78.7541 113.521 78.7623C113.986 78.7705 114.444 78.8722 114.868 79.0613C115.293 79.2505 115.675 79.5231 115.992 79.8631L125.652 89.5193L141.675 69.1043C141.704 69.0685 141.735 69.0346 141.768 69.0028H141.763Z" fill="white"/>
<defs>
<clipPath id="clip0_87_455">
<rect width="22.2734" height="22.2734" fill="white" transform="translate(197.188 53.6543) rotate(-15)"/>
</clipPath>
<clipPath id="clip1_87_455">
<rect width="11.0587" height="11.0587" fill="white" transform="translate(177.984 9.00439) rotate(-15)"/>
</clipPath>
<clipPath id="clip2_87_455">
<rect width="9.62799" height="9.62799" fill="white" transform="translate(64 67.4917) rotate(-15)"/>
</clipPath>
<clipPath id="clip3_87_455">
<rect width="9.62799" height="9.62799" fill="white" transform="translate(39 33.4917) rotate(-15)"/>
</clipPath>
<clipPath id="clip4_87_455">
<rect width="9.62799" height="9.62799" fill="white" transform="translate(0 82.4917) rotate(-15)"/>
</clipPath>
<clipPath id="clip5_87_455">
<rect width="8.47256" height="8.47256" fill="white" transform="translate(248 76.1929) rotate(-15)"/>
</clipPath>
</defs>
</svg>
