<svg width="275" height="275" viewBox="0 0 275 275" fill="none" xmlns="http://www.w3.org/2000/svg">
<path d="M250.062 89.8925L254.624 82.5396L252.358 81.1365C251.698 80.7273 251.352 79.976 251.417 79.2016C251.453 78.7831 251.467 78.3618 251.458 77.9394C251.442 77.1545 251.839 76.4197 252.531 76.0485L254.865 74.7967L250.774 67.1682L248.44 68.42C247.769 68.7797 246.949 68.7428 246.325 68.3056C245.948 68.041 245.557 67.7985 245.154 67.5801C244.483 67.216 244.082 66.4972 244.107 65.7343L244.191 63.0866L235.542 62.8177L235.462 65.4753C235.439 66.242 234.983 66.9251 234.288 67.2507C234.086 67.3453 233.885 67.4459 233.687 67.5526C233.488 67.6588 233.294 67.7704 233.103 67.8859C232.451 68.283 231.634 68.2858 230.985 67.8837L228.716 66.4785L224.155 73.8314L226.427 75.2416C227.086 75.6508 227.431 76.401 227.364 77.1738C227.328 77.5918 227.314 78.012 227.322 78.4333C227.336 79.2176 226.94 79.9513 226.249 80.322L223.914 81.5743L228.005 89.2023L230.339 87.9499C231.031 87.5792 231.861 87.6546 232.506 88.1006C232.853 88.3404 233.211 88.561 233.579 88.7617C234.26 89.1335 234.694 89.8353 234.671 90.6114L234.588 93.2844L243.237 93.5533L243.319 90.8979C243.344 90.1219 243.819 89.4465 244.521 89.1148C244.713 89.0235 244.905 88.9273 245.095 88.825C245.284 88.7243 245.469 88.6187 245.65 88.5093C246.318 88.1061 247.146 88.0841 247.809 88.495L250.062 89.8925ZM243.526 83.9432C239.715 86.6514 234.439 85.0591 232.763 80.6949C231.622 77.7243 232.659 74.272 235.252 72.4273C239.061 69.7174 244.351 71.3141 246.025 75.6789C247.166 78.6505 246.121 82.0996 243.526 83.9432Z" fill="#EBEBEB"/>
<path d="M23.3921 157.865C23.8651 158.138 24.1258 158.657 24.0977 159.203C24.09 159.351 24.0862 159.5 24.0862 159.649C24.0862 159.8 24.09 159.95 24.0977 160.098C24.1252 160.642 23.8662 161.16 23.3943 161.432L21.7822 162.362L24.8116 167.613L26.4231 166.683C26.8961 166.41 27.4775 166.437 27.9345 166.736C28.1859 166.9 28.4466 167.052 28.7161 167.188C29.2006 167.435 29.5119 167.925 29.5119 168.469V170.325H35.5757V168.469C35.5757 167.925 35.887 167.435 36.3715 167.188C36.6405 167.052 36.9017 166.9 37.1531 166.736C37.6101 166.437 38.1915 166.41 38.6645 166.683L40.276 167.613L43.3054 162.362L41.6867 161.427C41.2159 161.154 40.9574 160.638 40.9849 160.095C40.9926 159.947 40.9965 159.798 40.9965 159.649C40.9965 159.499 40.9926 159.351 40.9849 159.203C40.9569 158.657 41.2176 158.138 41.6906 157.866L43.3048 156.936L40.2754 151.686L38.6683 152.615C38.1959 152.888 37.6145 152.862 37.1575 152.563C36.905 152.398 36.6427 152.247 36.3726 152.11C35.8875 151.863 35.5757 151.373 35.5757 150.829V148.973H29.5125V150.829C29.5125 151.373 29.2006 151.863 28.7155 152.11C28.4449 152.247 28.1831 152.398 27.9301 152.563C27.4731 152.862 26.8917 152.888 26.4193 152.615L24.8127 151.686L21.7833 156.936L23.3921 157.865ZM32.5419 154.681C35.2842 154.681 37.51 156.907 37.51 159.649C37.51 162.391 35.2842 164.612 32.5419 164.612C29.7996 164.612 27.5787 162.391 27.5787 159.649C27.5787 156.907 29.7996 154.681 32.5419 154.681Z" fill="#EBEBEB"/>
<path d="M212.891 61.1479L211.121 53.5975L208.797 54.1437C208.118 54.3032 207.423 54.0463 206.974 53.5139C206.732 53.2263 206.473 52.9502 206.201 52.6878C205.693 52.2005 205.479 51.4833 205.682 50.8096L206.368 48.537L198.942 46.2952L198.256 48.5678C198.059 49.2212 197.515 49.7173 196.843 49.8355C196.436 49.907 196.035 50.0011 195.641 50.1182C194.985 50.3129 194.276 50.1111 193.807 49.6122L192.183 47.8808L186.531 53.1916L188.165 54.9263C188.636 55.4268 188.78 56.149 188.546 56.7952C188.478 56.9833 188.415 57.1742 188.356 57.3672C188.298 57.5603 188.245 57.7544 188.198 57.9486C188.036 58.6135 187.52 59.1333 186.854 59.2895L184.526 59.8362L186.295 67.3866L188.629 66.8404C189.306 66.682 189.999 66.9389 190.447 67.4713C190.689 67.7589 190.946 68.0345 191.218 68.2963C191.725 68.7836 191.938 69.5002 191.735 70.1729L191.049 72.446L198.476 74.6878L199.162 72.4147C199.365 71.742 199.939 71.263 200.631 71.137C201.002 71.0694 201.369 70.9825 201.73 70.8769C202.397 70.6811 203.118 70.8505 203.594 71.357L205.236 73.1027L210.887 67.7925L209.257 66.0572C208.781 65.5501 208.654 64.8208 208.888 64.1658C208.953 63.9859 209.013 63.8033 209.069 63.618C209.124 63.4348 209.174 63.2506 209.22 63.0663C209.388 62.3882 209.899 61.8486 210.579 61.6897L212.891 61.1479ZM204.978 61.5197C204.28 65.6508 199.927 67.9855 196.099 66.2822C193.493 65.1228 191.963 62.2776 192.437 59.4655C193.134 55.3339 197.498 52.9936 201.325 54.6986C203.931 55.8591 205.454 58.7076 204.978 61.5197Z" fill="#EBEBEB"/>
<path d="M103.396 77.0001C106.658 56.6748 92.8265 37.5529 72.5012 34.2903C52.1759 31.0276 33.054 44.8596 29.7914 65.1849C26.5287 85.5102 40.3607 104.632 60.686 107.895C81.0113 111.157 100.133 97.3254 103.396 77.0001Z" fill="#EBEBEB"/>
<path d="M68.2983 107.491C87.9401 107.491 103.863 91.568 103.863 71.9262C103.863 52.2844 87.9401 36.3616 68.2983 36.3616C48.6565 36.3616 32.7336 52.2844 32.7336 71.9262C32.7336 91.568 48.6565 107.491 68.2983 107.491Z" fill="#DBDBDB"/>
<path d="M68.2978 105.245C86.6993 105.245 101.617 90.3278 101.617 71.9262C101.617 53.5247 86.6993 38.6072 68.2978 38.6072C49.8962 38.6072 34.9788 53.5247 34.9788 71.9262C34.9788 90.3278 49.8962 105.245 68.2978 105.245Z" fill="white"/>
<path opacity="0.5" d="M100.862 64.8549C85.6894 74.0481 60.7529 89.1286 46.8154 97.3951C42.9054 94.0945 39.7682 89.9129 37.7107 85.1532L83.8073 42.4308C92.3906 46.9507 98.7574 55.1111 100.862 64.8549Z" fill="#EBEBEB"/>
<path opacity="0.5" d="M101.593 73.0889C101.465 76.8955 100.695 80.5387 99.3903 83.9162L57.834 103.569C56.0107 102.965 54.2557 102.211 52.5864 101.314C65.1396 94.0599 88.0779 80.8615 101.593 73.0889Z" fill="#EBEBEB"/>
<path d="M68.6201 41.0261H67.9761V46.0762H68.6201V41.0261Z" fill="#C7C7C7"/>
<path d="M53.1323 45.0036L52.574 45.3259L55.0993 49.7003L55.6576 49.378L53.1323 45.0036Z" fill="#C7C7C7"/>
<path d="M41.7008 56.1977L41.3787 56.7554L45.7525 59.2813L46.0746 58.7235L41.7008 56.1977Z" fill="#C7C7C7"/>
<path d="M42.4483 71.6039H37.3982V72.248H42.4483V71.6039Z" fill="#C7C7C7"/>
<path d="M45.7542 84.5712L41.3804 87.097L41.7025 87.6547L46.0763 85.1289L45.7542 84.5712Z" fill="#C7C7C7"/>
<path d="M55.0919 94.1463L52.5693 98.5212L53.1278 98.8432L55.6503 94.4683L55.0919 94.1463Z" fill="#C7C7C7"/>
<path d="M68.6201 97.7762H67.9761V102.827H68.6201V97.7762Z" fill="#C7C7C7"/>
<path d="M81.4996 94.1504L80.9414 94.4727L83.4665 98.846L84.0247 98.5237L81.4996 94.1504Z" fill="#C7C7C7"/>
<path d="M90.8415 84.5682L90.5198 85.1254L94.8936 87.6508L95.2154 87.0935L90.8415 84.5682Z" fill="#C7C7C7"/>
<path d="M99.1983 71.6039H94.1482V72.248H99.1983V71.6039Z" fill="#C7C7C7"/>
<path d="M94.9012 56.1946L90.5273 58.7205L90.8492 59.2777L95.223 56.7519L94.9012 56.1946Z" fill="#C7C7C7"/>
<path d="M83.4725 45.0037L80.9492 49.379L81.5076 49.7011L84.0309 45.3257L83.4725 45.0037Z" fill="#C7C7C7"/>
<path d="M68.7825 43.3131L69.8781 74.1747L66.7178 74.1356L67.9245 43.3026L68.7825 43.3131Z" fill="#C7C7C7"/>
<path d="M88.006 61.1633L67.2424 74.4166L65.7332 71.6391L87.5962 60.4092L88.006 61.1633Z" fill="#A6A6A6"/>
<path d="M69.3763 71.9263C69.3763 72.5219 68.8934 73.0054 68.2978 73.0054C67.7021 73.0054 67.2192 72.5225 67.2192 71.9263C67.2192 71.3306 67.7021 70.8477 68.2978 70.8477C68.8934 70.8477 69.3763 71.3306 69.3763 71.9263Z" fill="#C7C7C7"/>
<path d="M229.107 172.32C229.107 172.32 220.497 170.368 215.778 166.02C211.058 161.671 208.422 153.881 208.422 153.881C208.422 153.881 213.49 154.81 218.078 156.418C218.848 157.242 220.316 158.941 221 160.548C221 160.548 221.145 158.85 221.022 157.595C222.25 158.161 223.319 158.787 224.089 159.457C228.002 162.881 229.107 172.32 229.107 172.32Z" fill="#DBDBDB"/>
<path d="M213.798 157.667C212.624 156.855 211.429 156.072 210.26 155.252C210.19 155.203 210.256 155.093 210.331 155.137C212.55 156.463 214.737 157.879 216.854 159.362C217.592 159.88 218.316 160.418 219.032 160.967C218.982 160.882 218.933 160.796 218.882 160.712C218.624 160.279 218.351 159.855 218.079 159.431C217.532 158.579 216.934 157.74 216.252 156.991C216.226 156.963 216.269 156.922 216.294 156.951C216.963 157.723 217.633 158.489 218.245 159.309C218.536 159.699 218.806 160.103 219.064 160.516C219.197 160.73 219.327 160.946 219.451 161.166C219.492 161.239 219.538 161.313 219.58 161.388C220.693 162.262 221.777 163.174 222.813 164.138C223.451 164.733 224.067 165.35 224.662 165.986C224.329 164.944 224.038 163.891 223.652 162.864C223.639 162.829 223.696 162.814 223.708 162.85C224.084 163.926 224.493 165.008 224.783 166.113C225.443 166.825 226.074 167.564 226.668 168.332C226.658 168.286 226.648 168.238 226.637 168.192C226.539 167.786 226.438 167.381 226.329 166.978C226.12 166.199 225.891 165.426 225.628 164.662C225.089 163.097 224.39 161.566 223.315 160.294C223.291 160.265 223.333 160.224 223.358 160.253C225.039 162.244 226.026 164.631 226.655 167.139C226.747 167.506 226.834 167.874 226.918 168.243C226.962 168.438 227.013 168.637 227.047 168.838C227.307 169.189 227.562 169.545 227.807 169.909C229.302 172.133 230.467 174.565 231.45 177.053C232.557 179.856 233.417 182.751 234.21 185.656C234.226 185.713 234.14 185.733 234.122 185.678C232.438 180.639 230.718 175.529 227.836 171.025C227.227 170.074 226.568 169.159 225.869 168.274C224.453 168.195 223.024 167.887 221.682 167.44C220.199 166.945 218.799 166.26 217.486 165.413C216.727 164.924 216.037 164.353 215.335 163.788C215.302 163.762 215.339 163.716 215.372 163.743C216.536 164.728 217.936 165.499 219.318 166.131C220.708 166.765 222.169 167.263 223.662 167.588C224.298 167.727 224.942 167.829 225.587 167.917C224.791 166.936 223.943 165.998 223.048 165.103C222.758 164.813 222.456 164.536 222.158 164.255C221.169 163.533 220.074 162.963 218.975 162.432C217.564 161.75 216.176 161.028 214.779 160.318C213.992 159.917 213.209 159.507 212.415 159.119C212.381 159.103 212.412 159.053 212.446 159.069C213.861 159.753 215.298 160.392 216.726 161.046C218.07 161.662 219.431 162.28 220.721 163.005C220.776 163.036 220.829 163.07 220.883 163.102C219.717 162.087 218.51 161.119 217.275 160.186C216.133 159.325 214.974 158.481 213.798 157.667Z" fill="#A6A6A6"/>
<path d="M214.288 162.106C214.988 162.413 215.701 162.686 216.394 163.009C217.107 163.343 217.782 163.733 218.459 164.134C218.488 164.151 218.461 164.193 218.431 164.179C217.745 163.85 217.049 163.543 216.369 163.201C215.673 162.851 214.984 162.476 214.27 162.163C214.237 162.148 214.253 162.091 214.288 162.106Z" fill="#A6A6A6"/>
<path d="M257.078 128.928C257.078 128.928 254.661 131.696 254.505 136.079C254.477 136.851 254.598 137.927 254.688 139.192C251.477 140.907 249.069 143.994 249.069 143.994C250.893 142.899 253.396 142.456 254.747 142.635C254.702 143.468 254.603 144.332 254.418 145.208C253.822 145.174 252.67 145.254 250.766 145.93C250.766 145.93 252.635 145.883 254.059 146.585C252.525 151.468 247.962 156.484 235.364 158.614C235.364 158.614 232.933 150.061 237.595 140.886C241.37 133.461 257.078 128.928 257.078 128.928Z" fill="#DBDBDB"/>
<path d="M231.003 179.509C231.222 177.423 231.497 175.342 231.819 173.27C232.464 169.123 233.299 164.999 234.359 160.938C234.859 159.022 235.459 157.147 236.178 155.318C236.131 154.987 236.138 154.642 236.131 154.31C236.122 153.906 236.12 153.503 236.125 153.099C236.134 152.292 236.172 151.486 236.24 150.682C236.376 149.095 236.618 147.504 237.014 145.959C237.245 145.061 237.512 144.178 237.775 143.29C237.786 143.254 237.842 143.271 237.831 143.307C237.386 144.842 237.13 146.441 236.901 148.021C236.675 149.587 236.536 151.169 236.478 152.749C236.462 153.182 236.455 153.616 236.454 154.048C236.454 154.232 236.462 154.418 236.469 154.605C237.089 153.106 237.789 151.638 238.592 150.211C239.861 147.954 241.321 145.809 242.904 143.76C242.89 143.526 242.96 143.28 243.007 143.056C243.066 142.774 243.128 142.493 243.191 142.212C243.32 141.637 243.464 141.065 243.62 140.495C243.933 139.353 244.347 138.25 244.704 137.123C244.715 137.087 244.771 137.104 244.76 137.14C244.427 138.256 244.206 139.412 243.951 140.548C243.824 141.11 243.702 141.672 243.578 142.234C243.516 142.515 243.456 142.796 243.398 143.079C243.394 143.099 243.39 143.121 243.386 143.142C243.896 142.499 244.415 141.865 244.946 141.242C247.352 138.421 249.99 135.819 252.645 133.235C252.971 132.917 253.306 132.607 253.636 132.294C253.664 132.268 253.703 132.31 253.676 132.337C251.139 134.983 248.641 137.661 246.276 140.463C245.713 141.129 245.16 141.803 244.616 142.485C244.902 142.291 245.192 142.102 245.476 141.916C246.208 141.436 246.951 140.969 247.715 140.541C248.48 140.112 249.25 139.694 250.036 139.305C250.844 138.905 251.707 138.579 252.487 138.125C252.52 138.106 252.549 138.163 252.515 138.176C251.712 138.506 250.961 139.008 250.216 139.45C249.449 139.905 248.684 140.363 247.931 140.84C247.191 141.31 246.446 141.773 245.711 142.25C245.098 142.649 244.495 143.084 243.859 143.451C242.406 145.333 241.041 147.283 239.823 149.326C239.056 150.613 238.363 151.933 237.737 153.282C237.887 153.216 238.039 153.152 238.188 153.086C238.573 152.916 238.957 152.745 239.342 152.574C240.083 152.245 240.827 151.925 241.57 151.601C242.983 150.987 244.418 150.422 245.804 149.748C246.581 149.371 247.346 148.972 248.066 148.492C248.098 148.471 248.125 148.523 248.094 148.543C245.512 150.324 242.615 151.578 239.756 152.844L238.517 153.392C238.176 153.543 237.835 153.711 237.484 153.843C236.641 155.732 235.928 157.678 235.354 159.681C234.206 163.683 233.332 167.771 232.612 171.869C231.89 175.985 231.402 180.127 231.023 184.286C230.976 184.805 230.929 185.324 230.871 185.842C230.847 186.049 230.54 186.049 230.542 185.834C230.567 183.724 230.783 181.608 231.003 179.509Z" fill="#A6A6A6"/>
<path d="M238.668 144.718C238.899 143.437 239.24 142.184 239.585 140.931C239.595 140.895 239.651 140.912 239.642 140.948C239.323 142.179 239.095 143.433 238.863 144.682C238.627 145.955 238.419 147.235 238.24 148.517C238.236 148.539 238.203 148.539 238.204 148.516C238.288 147.241 238.441 145.976 238.668 144.718Z" fill="#A6A6A6"/>
<path d="M244.098 148.191C244.951 147.587 245.91 147.129 246.838 146.65C247.297 146.412 247.762 146.187 248.227 145.962C248.707 145.73 249.205 145.535 249.68 145.296C249.714 145.279 249.742 145.33 249.709 145.347C249.248 145.578 248.811 145.858 248.358 146.105C247.892 146.36 247.428 146.619 246.96 146.87C246.039 147.365 245.133 147.914 244.166 148.315C244.081 148.349 244.023 148.244 244.098 148.191Z" fill="#A6A6A6"/>
<path opacity="0.1" d="M228.951 157.404C228.951 157.404 220.983 155.501 217.325 150.156C213.831 145.052 212.702 136.35 212.612 135.585C212.756 136.287 214.4 143.892 219.824 147.434C223.977 150.149 227.99 152.38 228.951 157.404Z" fill="#A6A6A6"/>
<path d="M221.597 143.638C222.999 144.988 224.051 146.576 224.535 148.476C224.539 148.493 224.515 148.501 224.51 148.485C223.911 146.715 222.923 144.972 221.559 143.681C221.53 143.656 221.57 143.612 221.597 143.638Z" fill="#A6A6A6"/>
<path d="M228.951 157.404C228.951 157.404 220.983 155.501 217.325 150.156C213.831 145.052 212.702 136.35 212.612 135.585C212.605 135.55 212.604 135.531 212.604 135.531C212.604 135.531 216.424 140.963 220.44 142.349C224.457 143.734 230.102 148.526 228.951 157.404Z" fill="#DBDBDB"/>
<path d="M214.015 138.528C214.755 139.977 215.529 141.415 216.478 142.74C217.403 144.03 218.516 145.127 219.756 146.112C220.838 146.972 221.982 147.751 223.078 148.593C223.07 148.581 223.062 148.567 223.053 148.554C222.847 148.249 222.627 147.952 222.401 147.662C221.945 147.079 221.446 146.529 220.944 145.985C219.954 144.911 218.943 143.857 218.056 142.694C217.565 142.05 217.133 141.365 216.779 140.636C216.762 140.603 216.818 140.584 216.834 140.617C218.126 143.31 220.707 145.033 222.549 147.308C222.812 147.632 223.059 147.965 223.286 148.315C223.446 148.561 223.64 148.835 223.744 149.124C224.747 149.945 225.672 150.84 226.463 151.872C226.396 151.349 226.282 150.828 226.142 150.325C225.944 149.612 225.685 148.941 225.298 148.308C225.278 148.276 225.328 148.243 225.347 148.276C225.72 148.904 226.06 149.581 226.277 150.28C226.453 150.848 226.535 151.417 226.566 152.001C226.568 152.002 226.569 152.004 226.571 152.006C226.969 152.54 227.322 153.102 227.647 153.68C227.614 153.51 227.582 153.339 227.548 153.169C227.39 152.376 227.215 151.584 227.009 150.801C226.591 149.213 226.027 147.673 225.092 146.312C225.071 146.281 225.12 146.248 225.141 146.28C226.063 147.623 226.762 149.123 227.265 150.671C227.519 151.453 227.723 152.248 227.901 153.05C227.989 153.442 228.067 153.836 228.143 154.23C228.182 154.434 228.226 154.642 228.259 154.852C229.073 156.574 229.645 158.42 230.096 160.253C230.909 163.555 231.416 166.951 231.795 170.328C232.194 173.873 232.403 177.457 232.345 181.025C232.338 181.473 232.311 181.92 232.286 182.368C232.279 182.483 232.107 182.5 232.102 182.378C232.024 180.611 231.978 178.841 231.873 177.075C231.768 175.306 231.614 173.543 231.425 171.781C231.054 168.325 230.518 164.874 229.765 161.48C229.119 158.567 228.281 155.635 226.689 153.083C225.891 151.804 224.937 150.672 223.815 149.664C222.698 148.662 221.476 147.783 220.299 146.854C219.127 145.93 218.001 144.925 217.072 143.753C216.069 142.488 215.28 141.069 214.538 139.641C214.35 139.279 214.157 138.921 213.967 138.561C213.949 138.527 213.998 138.494 214.015 138.528Z" fill="#A6A6A6"/>
<path d="M215.39 139.696C215.901 140.774 216.516 141.8 217.165 142.8C217.181 142.823 217.145 142.847 217.128 142.824C216.434 141.845 215.857 140.794 215.334 139.715C215.319 139.681 215.374 139.663 215.39 139.696Z" fill="#A6A6A6"/>
<path d="M258.189 153.881C258.189 153.881 258.316 165.203 251.545 168.472C244.775 171.745 241.145 169.018 236.545 170.113C236.545 170.113 236.549 170.113 236.553 170.107C236.731 169.837 240.015 165.118 245.237 163.819C250.608 162.479 256.561 158.599 258.189 153.881Z" fill="#DBDBDB"/>
<path opacity="0.1" d="M258.189 153.881C258.189 153.881 258.316 165.203 251.545 168.472C244.775 171.745 241.145 169.018 236.545 170.113C236.545 170.113 236.549 170.113 236.553 170.107C236.744 170.014 240.103 168.334 244.25 167.837C248.519 167.323 256.674 164.541 258.189 153.881Z" fill="#A6A6A6"/>
<path d="M236.099 170.315C236.907 169.587 237.811 168.961 238.792 168.491C238.937 168.422 239.087 168.365 239.234 168.303C239.306 168.213 239.382 168.126 239.462 168.043C239.665 167.831 239.876 167.628 240.099 167.437C240.524 167.072 240.977 166.739 241.461 166.455C242.582 165.795 243.812 165.334 244.958 164.721C244.992 164.704 245.02 164.755 244.986 164.772C244.419 165.067 243.871 165.391 243.319 165.713C242.783 166.027 242.234 166.325 241.712 166.662C241.244 166.965 240.792 167.299 240.372 167.666C240.254 167.77 240.139 167.884 240.025 167.999C240.771 167.743 241.539 167.548 242.313 167.391C243.552 167.141 244.806 166.963 246.042 166.7C246.651 166.57 247.25 166.409 247.839 166.215C248.401 165.763 248.961 165.313 249.493 164.823C250.135 164.231 250.726 163.587 251.243 162.882C251.266 162.852 251.316 162.884 251.293 162.913C250.458 163.991 249.562 165.078 248.518 165.976C248.809 165.865 249.099 165.746 249.384 165.617C251.684 164.572 253.731 162.912 255.153 160.817C255.174 160.786 255.224 160.817 255.203 160.848C253.963 162.643 252.39 164.178 250.535 165.328C249.605 165.905 248.625 166.377 247.586 166.724C246.393 167.123 245.156 167.359 243.922 167.59C242.714 167.817 241.5 168.048 240.334 168.444C239.254 168.811 238.238 169.343 237.325 170.027C235.582 171.332 234.234 173.118 233.268 175.057C231.987 177.628 231.374 180.501 231.034 183.336C231.02 183.457 230.832 183.457 230.84 183.331C231.158 178.572 232.43 173.62 236.099 170.315Z" fill="#A6A6A6"/>
<path d="M243.956 166.622C244.294 166.082 244.801 165.676 245.348 165.361C245.987 164.991 246.56 164.593 247.003 163.991C247.026 163.961 247.076 163.992 247.053 164.022C246.644 164.547 246.154 164.978 245.591 165.331C245.001 165.702 244.405 166.065 243.999 166.648C243.98 166.675 243.939 166.65 243.956 166.622Z" fill="#A6A6A6"/>
<path d="M240.364 178.671L240.056 184.898L239.112 203.921H224.909L223.965 184.898L223.657 178.671H240.364Z" fill="#EBEBEB"/>
<path d="M240.364 178.671L240.056 184.898H223.965L223.657 178.671H240.364Z" fill="#DBDBDB"/>
<path d="M241.36 176.073H222.661V182.013H241.36V176.073Z" fill="#EBEBEB"/>
<path d="M137.5 244.28C209.653 244.28 268.144 237.809 268.144 229.827C268.144 221.846 209.653 215.375 137.5 215.375C65.3471 215.375 6.85571 221.846 6.85571 229.827C6.85571 237.809 65.3471 244.28 137.5 244.28Z" fill="#EBEBEB"/>
<path d="M16.9197 203.921L47.0646 203.787L77.2096 203.738L137.5 203.646L197.79 203.738L227.935 203.786L258.08 203.921L227.935 204.055L197.79 204.103L137.5 204.195L77.2096 204.103L47.0646 204.054L16.9197 203.921Z" fill="#263238"/>
<path d="M228.474 89.9294H45.6011V212.258H228.474V89.9294Z" fill="#DBDBDB"/>
<path d="M227.146 91.4215H46.9299V210.766H227.146V91.4215Z" fill="#37474F"/>
<path d="M252.293 221.432H21.7827V229.827H252.293V221.432Z" fill="#C7C7C7"/>
<path d="M21.7827 221.432L45.601 212.259H228.474L252.293 221.432H21.7827Z" fill="#DBDBDB"/>
<path d="M47.7278 218.178L63.0981 212.259H210.977L226.347 218.178H47.7278Z" fill="#37474F"/>
<path d="M216.961 100.489H57.1143V201.699H216.961V100.489Z" fill="white"/>
<path d="M216.961 100.489H56.9795V104.383H216.961V100.489Z" fill="#A6A6A6"/>
<path d="M60.0749 102.436C60.0749 102.97 59.6426 103.402 59.1091 103.402C58.5756 103.402 58.1433 102.97 58.1433 102.436C58.1433 101.903 58.5756 101.471 59.1091 101.471C59.6426 101.471 60.0749 101.903 60.0749 102.436Z" fill="#C7C7C7"/>
<path d="M63.0532 103.402C63.5866 103.402 64.019 102.97 64.019 102.436C64.019 101.903 63.5866 101.471 63.0532 101.471C62.5198 101.471 62.0874 101.903 62.0874 102.436C62.0874 102.97 62.5198 103.402 63.0532 103.402Z" fill="white"/>
<path d="M67.9631 102.436C67.9631 102.97 67.5308 103.402 66.9973 103.402C66.4638 103.402 66.0315 102.97 66.0315 102.436C66.0315 101.903 66.4638 101.471 66.9973 101.471C67.5302 101.471 67.9631 101.903 67.9631 102.436Z" fill="#F25A1B"/>
<path d="M92.7355 92.0508C86.9115 99.7645 86.543 111.147 86.543 111.147C86.543 111.147 81.6249 123.265 84.3034 129.066C86.9825 134.866 92.4115 135.554 92.4115 135.554L91.289 132.285C91.289 132.285 94.0824 136.293 101.617 137.001C109.152 137.709 118.469 134.091 123.122 130.842C127.774 127.594 129.568 123.314 129.568 123.314L128.382 128.464C128.382 128.464 135.418 127.211 138.55 119.093C141.682 110.975 128.08 101.871 126.727 99.6886C125.374 97.5062 121.661 80.7142 104.221 86.1795C104.221 86.1795 96.745 86.74 92.7355 92.0508Z" fill="#263238"/>
<path d="M89.7649 135.482C87.6111 134.814 85.6454 133.003 84.3447 131.207C82.9658 129.305 82.1804 127.042 82.2679 124.68C82.3729 121.861 83.4779 119.234 84.5504 116.67C85.6586 114.02 86.9649 111.444 88.0247 108.777C88.083 108.63 87.8625 108.547 87.7811 108.669C86.4149 110.707 85.2973 112.962 84.1791 115.144C83.1138 117.221 82.082 119.359 81.5243 121.637C81.0177 123.704 80.8803 125.965 81.5914 128.005C82.1777 129.687 83.1941 131.168 84.4899 132.383C86.0359 133.834 87.8597 134.647 89.6923 135.645C89.8073 135.707 89.8887 135.52 89.7649 135.482Z" fill="#263238"/>
<path d="M138.956 111.136C135.929 105.191 129.745 102.025 125.553 97.0613C123.283 94.374 121.387 91.3105 118.613 89.0918C118.539 89.0318 118.435 89.1594 118.507 89.2232C120.812 91.2483 122.351 93.8592 124.156 96.2984C125.991 98.7784 128.233 100.848 130.513 102.909C134.655 106.653 139.606 111.068 139.638 117.124C139.653 119.92 138.466 123.185 135.776 124.441C135.672 124.489 135.763 124.657 135.863 124.598C137.999 123.327 139.471 121.406 140.067 118.976C140.723 116.303 140.193 113.563 138.956 111.136Z" fill="#263238"/>
<path d="M139.456 112.782C139.273 110.403 138.461 108.076 136.93 106.225C135.408 104.386 133.267 103.208 131.147 102.192C128.702 101.021 126.148 99.946 124.395 97.7933C124.321 97.7031 124.194 97.828 124.265 97.9176C127.068 101.481 131.604 102.684 134.964 105.541C138.806 108.806 139.582 114.249 137.912 118.845C136.885 121.673 135.056 124.14 132.869 126.18C132.832 126.216 132.887 126.273 132.926 126.239C136.751 122.864 139.863 118.083 139.456 112.782Z" fill="#263238"/>
<path d="M108.902 139.732C114.693 145.815 144.449 174.594 157.445 171.909C173.188 168.656 191.479 159.079 198.619 152.27C202.621 148.454 183.32 129.167 179.297 132.144C172.951 136.84 157.672 144.646 154.986 145.724C152.298 146.802 129.544 135.089 116.278 130.504C104.327 126.374 104.823 135.447 108.902 139.732Z" fill="#DD6A57"/>
<path d="M209.503 143.616C206.007 148.273 195.135 155.001 191.888 155.615C188.641 156.23 176.587 138.125 177.67 134.912C178.752 131.698 191.734 116.93 197.488 115.45C203.242 113.97 213.123 138.791 209.503 143.616Z" fill="#DD6A57"/>
<path d="M179.439 132.007C179.439 132.007 181.502 124.719 181.071 118.061C180.709 112.462 179.539 104.19 182.542 103.882C188.708 103.251 191.618 123.883 191.618 123.883C191.618 123.883 191.441 133.191 185.388 134.357C181.591 135.089 179.439 132.007 179.439 132.007Z" fill="#DD6A57"/>
<path d="M189.095 119.504C188.787 122.574 192.581 121.179 192.581 121.179C192.581 121.179 187.604 124.502 188.511 127.789C189.393 130.955 193.916 129.109 194.242 128.981C193.98 129.159 189.487 132.332 190.738 135.542C192.041 138.877 196.264 136.244 196.536 136.073C196.342 136.319 193.826 139.611 195.332 141.833C197.92 145.651 204.582 137.408 208.309 137.171C208.309 137.171 209.432 143.441 209.503 143.616C209.503 143.616 216.002 135.904 215.401 130.895C215.085 128.255 212.561 128.029 212.561 128.029C212.561 128.029 214.932 125.774 214.026 123.216C213.558 121.904 211.043 121.486 211.043 121.486C211.043 121.486 212.866 119.601 211.918 117.376C211.168 115.598 208.762 115.455 208.762 115.455C208.762 115.455 209.672 112.833 208.315 111.266C205.586 108.098 189.76 112.932 189.095 119.504Z" fill="#DD6A57"/>
<path d="M208.385 115.374C208.438 115.363 208.432 115.284 208.376 115.288C202.783 115.607 196.736 117.673 192.368 121.233C192.224 121.35 192.352 121.634 192.535 121.535C197.739 118.725 202.581 116.648 208.385 115.374Z" fill="#263238"/>
<path d="M211.112 121.43C211.175 121.417 211.153 121.312 211.084 121.316C205.323 121.677 198.576 124.19 194.025 128.887C193.868 129.048 193.89 129.349 194.083 129.177C197.347 126.284 205.881 122.55 211.112 121.43Z" fill="#263238"/>
<path d="M196.331 136.51C200.87 132.175 206.341 129.731 212.322 128.029C212.4 128.007 212.36 127.899 212.291 127.899C209.138 127.935 205.439 129.417 202.658 130.814C199.995 132.152 197.861 133.895 196.181 136.351C196.115 136.447 196.234 136.603 196.331 136.51Z" fill="#263238"/>
<path d="M192.48 121.152C192.308 121.293 192.702 121.389 192.535 121.535C191.831 122.148 187.911 126.201 188.877 127.966C189.655 129.378 192.092 129.312 193.018 128.92L195.346 127.933L193.502 129.67C192.696 130.428 191.953 131.342 191.442 132.315C190.929 133.285 190.676 134.388 191.038 135.314C191.397 136.29 192.225 136.893 193.246 136.8C194.258 136.749 195.347 136.254 196.244 135.666L198.749 134.021L196.928 136.384C196.435 137.024 195.988 137.771 195.673 138.525C195.364 139.28 195.175 140.095 195.33 140.812C195.479 141.515 196.016 142.144 196.688 142.291C197.393 142.454 198.238 142.22 199.015 141.919C200.595 141.286 202.061 140.305 203.561 139.405C204.31 138.948 205.061 138.488 205.835 138.064C206.607 137.658 207.419 137.222 208.308 137.171C207.435 137.313 206.697 137.823 205.958 138.273C205.228 138.75 204.518 139.262 203.806 139.774C202.383 140.8 200.938 141.817 199.296 142.585C198.47 142.936 197.562 143.289 196.519 143.119C195.444 142.935 194.649 142.009 194.432 141.014C194.205 140 194.45 139.025 194.781 138.166C195.132 137.297 195.579 136.518 196.143 135.76L196.827 136.479C195.773 137.183 194.653 137.743 193.299 137.854C192.633 137.904 191.883 137.743 191.295 137.315C190.703 136.888 190.32 136.3 190.085 135.662C189.603 134.334 190.005 132.937 190.595 131.864C191.204 130.761 191.985 129.833 192.906 128.99L193.39 129.741C192.196 130.199 189.48 130.57 187.998 128.531C186.465 125.587 191.508 121.782 192.48 121.152Z" fill="#263238"/>
<path d="M192.581 121.179C191.914 121.268 191.256 121.293 190.688 121.188C190.117 121.087 189.698 120.755 189.536 120.305C189.363 119.857 189.455 119.246 189.607 118.65C189.779 118.053 189.99 117.434 190.233 116.803C189.714 117.242 189.282 117.783 188.977 118.411C188.681 119.031 188.456 119.79 188.726 120.605C188.89 120.998 189.153 121.331 189.502 121.556C189.859 121.769 190.255 121.863 190.627 121.857C191.371 121.859 192.032 121.576 192.581 121.179Z" fill="#263238"/>
<path d="M174.681 134.151L197.037 159.417C197.037 159.417 163.85 175.663 153.041 173.185C142.232 170.707 119.907 153.858 110.138 141.823C100.369 129.788 106.273 126.455 119.889 130.957C133.505 135.458 152.718 144.236 154.672 144.139C156.626 144.042 174.681 134.151 174.681 134.151Z" fill="#F25A1B"/>
<path d="M197.035 159.417C197.035 159.417 163.851 175.661 153.042 173.187C146.313 171.646 135.122 164.535 125.278 156.476C125.236 156.45 125.198 156.418 125.161 156.386C119.232 151.527 113.802 146.335 110.135 141.82C106.966 137.921 105.451 134.932 105.308 132.829C105.276 132.405 105.302 132.013 105.393 131.658C106.151 128.378 111.587 128.214 119.889 130.958C133.506 135.457 152.718 144.237 154.674 144.141C156.623 144.04 174.681 134.153 174.681 134.153L197.035 159.417Z" fill="#F25A1B"/>
<path d="M136.574 156.912C136.986 156.844 137.386 156.68 137.876 156.844C138.341 157.001 138.68 157.485 138.685 157.993C138.677 158.335 138.848 158.639 139.135 158.836C139.282 158.937 139.442 158.985 139.65 159.003C139.857 159.044 140.063 159.067 140.27 159.123C139.864 159.192 139.449 159.361 138.965 159.171C138.504 159.001 138.189 158.491 138.197 158.002C138.2 157.677 138.011 157.366 137.72 157.184C137.568 157.087 137.411 157.05 137.193 157.032C136.987 156.991 136.781 156.967 136.574 156.912Z" fill="white"/>
<path d="M107.343 133.65C106.935 133.724 106.522 133.889 106.039 133.703C105.669 133.565 105.398 133.215 105.308 132.828C105.276 132.404 105.303 132.012 105.393 131.657C105.616 131.885 105.753 132.198 105.759 132.521C105.748 132.865 105.923 133.167 106.209 133.363C106.352 133.464 106.517 133.512 106.723 133.533C106.929 133.576 107.136 133.597 107.343 133.65Z" fill="white"/>
<path d="M168.016 148.21C168.428 148.141 168.827 147.977 169.318 148.141C169.783 148.299 170.122 148.783 170.127 149.29C170.118 149.632 170.29 149.937 170.576 150.133C170.723 150.234 170.883 150.282 171.092 150.3C171.299 150.341 171.505 150.365 171.712 150.42C171.306 150.489 170.891 150.658 170.406 150.468C169.946 150.297 169.63 149.788 169.638 149.299C169.642 148.974 169.453 148.663 169.161 148.482C169.009 148.385 168.852 148.348 168.635 148.33C168.429 148.288 168.222 148.265 168.016 148.21Z" fill="white"/>
<path d="M189.77 157.394C190.182 157.325 190.582 157.161 191.072 157.325C191.537 157.483 191.876 157.967 191.881 158.474C191.872 158.816 192.044 159.121 192.33 159.317C192.477 159.418 192.637 159.466 192.846 159.484C193.053 159.525 193.259 159.548 193.466 159.604C193.06 159.673 192.645 159.842 192.161 159.652C191.7 159.482 191.385 158.972 191.392 158.483C191.396 158.158 191.207 157.847 190.915 157.665C190.763 157.568 190.606 157.532 190.389 157.513C190.183 157.473 189.977 157.449 189.77 157.394Z" fill="white"/>
<path d="M147.47 163.363C147.882 163.295 148.282 163.131 148.772 163.295C149.237 163.452 149.576 163.937 149.581 164.444C149.573 164.785 149.745 165.09 150.031 165.287C150.178 165.388 150.338 165.436 150.546 165.454C150.753 165.494 150.959 165.518 151.166 165.574C150.76 165.643 150.345 165.812 149.861 165.622C149.4 165.452 149.085 164.942 149.093 164.453C149.097 164.128 148.907 163.817 148.616 163.635C148.464 163.538 148.307 163.501 148.09 163.483C147.883 163.442 147.676 163.418 147.47 163.363Z" fill="white"/>
<path d="M123.625 133.136C124.037 133.068 124.437 132.903 124.928 133.068C125.393 133.225 125.732 133.709 125.737 134.217C125.729 134.558 125.9 134.863 126.186 135.059C126.334 135.16 126.494 135.208 126.702 135.226C126.909 135.267 127.115 135.291 127.322 135.346C126.916 135.416 126.501 135.584 126.017 135.395C125.557 135.224 125.241 134.714 125.249 134.225C125.253 133.9 125.064 133.59 124.772 133.407C124.619 133.311 124.463 133.274 124.245 133.255C124.039 133.214 123.832 133.191 123.625 133.136Z" fill="white"/>
<path d="M175.155 162.163C174.913 162.502 174.745 162.902 174.282 163.132C173.842 163.35 173.26 163.247 172.898 162.892C172.662 162.644 172.325 162.55 171.984 162.614C171.808 162.647 171.662 162.726 171.502 162.861C171.327 162.978 171.164 163.107 170.979 163.215C171.217 162.879 171.39 162.466 171.867 162.257C172.313 162.053 172.897 162.19 173.237 162.541C173.465 162.773 173.818 162.859 174.153 162.782C174.329 162.743 174.466 162.658 174.633 162.517C174.808 162.4 174.97 162.27 175.155 162.163Z" fill="white"/>
<path d="M149.017 151.824C148.774 152.163 148.607 152.562 148.144 152.793C147.704 153.011 147.122 152.908 146.76 152.552C146.524 152.305 146.187 152.21 145.846 152.274C145.67 152.307 145.523 152.386 145.363 152.521C145.188 152.638 145.025 152.767 144.84 152.875C145.078 152.539 145.252 152.126 145.728 151.917C146.174 151.713 146.758 151.849 147.098 152.201C147.326 152.433 147.679 152.519 148.014 152.442C148.19 152.403 148.327 152.318 148.494 152.177C148.669 152.06 148.832 151.93 149.017 151.824Z" fill="white"/>
<path d="M161.73 157.475C161.488 157.814 161.32 158.214 160.857 158.444C160.417 158.662 159.835 158.559 159.473 158.204C159.237 157.957 158.9 157.862 158.559 157.926C158.383 157.958 158.237 158.038 158.077 158.173C157.902 158.29 157.739 158.419 157.553 158.527C157.792 158.19 157.965 157.778 158.442 157.569C158.888 157.364 159.472 157.501 159.812 157.853C160.039 158.085 160.393 158.171 160.728 158.094C160.905 158.055 161.042 157.969 161.208 157.829C161.382 157.711 161.545 157.582 161.73 157.475Z" fill="white"/>
<path d="M178.166 138.794C177.923 139.133 177.756 139.532 177.293 139.763C176.853 139.981 176.271 139.878 175.909 139.522C175.673 139.275 175.336 139.181 174.995 139.245C174.82 139.277 174.672 139.357 174.512 139.492C174.337 139.609 174.174 139.739 173.989 139.845C174.227 139.509 174.401 139.097 174.877 138.888C175.323 138.684 175.907 138.821 176.247 139.171C176.474 139.404 176.828 139.49 177.163 139.412C177.339 139.373 177.475 139.288 177.643 139.148C177.818 139.03 177.98 138.9 178.166 138.794Z" fill="white"/>
<path d="M115.437 137.486C115.505 137.897 115.669 138.298 115.505 138.788C115.347 139.253 114.863 139.592 114.356 139.597C114.015 139.589 113.71 139.76 113.514 140.047C113.413 140.194 113.365 140.354 113.347 140.562C113.306 140.769 113.282 140.975 113.227 141.182C113.157 140.776 112.989 140.362 113.178 139.877C113.349 139.417 113.859 139.102 114.348 139.109C114.673 139.113 114.983 138.924 115.165 138.632C115.262 138.48 115.299 138.323 115.318 138.106C115.358 137.899 115.382 137.693 115.437 137.486Z" fill="white"/>
<path d="M181.784 153.295C181.852 153.707 182.017 154.107 181.852 154.598C181.695 155.063 181.211 155.402 180.704 155.406C180.362 155.398 180.057 155.57 179.861 155.856C179.76 156.003 179.712 156.163 179.694 156.372C179.653 156.578 179.629 156.785 179.574 156.991C179.505 156.586 179.336 156.171 179.525 155.686C179.696 155.226 180.206 154.911 180.695 154.918C181.02 154.922 181.331 154.733 181.513 154.441C181.609 154.289 181.646 154.132 181.665 153.915C181.706 153.709 181.729 153.502 181.784 153.295Z" fill="white"/>
<path d="M163.156 166.977C163.225 167.389 163.389 167.789 163.225 168.28C163.067 168.744 162.583 169.084 162.076 169.089C161.734 169.08 161.429 169.252 161.233 169.538C161.132 169.685 161.084 169.845 161.066 170.054C161.025 170.26 161.001 170.467 160.946 170.673C160.877 170.267 160.708 169.853 160.897 169.368C161.068 168.908 161.578 168.592 162.067 168.6C162.392 168.604 162.703 168.414 162.885 168.123C162.982 167.971 163.018 167.814 163.038 167.597C163.078 167.39 163.101 167.183 163.156 166.977Z" fill="white"/>
<path d="M159.901 143.866C159.969 144.278 160.133 144.678 159.969 145.168C159.812 145.633 159.328 145.972 158.82 145.977C158.478 145.968 158.174 146.14 157.977 146.426C157.876 146.573 157.828 146.733 157.81 146.942C157.769 147.148 157.746 147.355 157.69 147.562C157.621 147.156 157.452 146.741 157.642 146.257C157.812 145.796 158.322 145.481 158.811 145.488C159.136 145.492 159.447 145.303 159.629 145.011C159.726 144.858 159.763 144.702 159.781 144.484C159.822 144.279 159.846 144.072 159.901 143.866Z" fill="white"/>
<path d="M138.397 142.017C138.465 142.429 138.629 142.829 138.465 143.32C138.308 143.784 137.824 144.124 137.316 144.129C136.975 144.12 136.67 144.291 136.473 144.578C136.372 144.725 136.324 144.885 136.306 145.094C136.266 145.3 136.242 145.507 136.186 145.713C136.117 145.307 135.948 144.893 136.138 144.408C136.308 143.948 136.818 143.632 137.307 143.64C137.632 143.643 137.943 143.454 138.125 143.163C138.222 143.01 138.258 142.854 138.277 142.636C138.318 142.43 138.342 142.224 138.397 142.017Z" fill="white"/>
<path d="M125.278 156.476C125.235 156.449 125.198 156.417 125.161 156.385C125.177 156.317 125.193 156.242 125.214 156.168C125.23 156.274 125.257 156.375 125.278 156.476Z" fill="white"/>
<path d="M123.146 146.797C123.389 146.457 123.556 146.058 124.019 145.828C124.459 145.61 125.041 145.713 125.403 146.068C125.639 146.315 125.976 146.409 126.317 146.346C126.492 146.313 126.64 146.233 126.8 146.099C126.975 145.982 127.137 145.852 127.323 145.745C127.085 146.081 126.911 146.494 126.434 146.702C125.988 146.907 125.405 146.77 125.064 146.418C124.837 146.186 124.484 146.1 124.149 146.177C123.973 146.216 123.836 146.302 123.669 146.442C123.494 146.56 123.331 146.689 123.146 146.797Z" fill="white"/>
<path d="M190.292 162.386C189.143 160.712 187.651 159.217 186.341 157.665C184.989 156.062 183.575 154.51 182.167 152.956C179.428 149.931 176.587 146.995 173.746 144.066C172.092 142.361 170.371 140.726 168.698 139.043C168.637 138.982 168.531 139.081 168.588 139.147C171.296 142.294 173.966 145.466 176.743 148.556C179.472 151.593 182.242 154.592 185.098 157.511C185.913 158.344 186.76 159.149 187.582 159.976C188.425 160.824 189.247 161.744 190.177 162.496C190.248 162.553 190.343 162.461 190.292 162.386Z" fill="#263238"/>
<path opacity="0.1" d="M164.95 171.952C160.121 173.217 155.837 173.827 153.043 173.189C146.311 171.644 135.124 164.532 125.279 156.475C125.235 156.447 125.196 156.42 125.163 156.387C119.234 151.525 113.8 146.333 110.137 141.817C106.964 137.918 105.451 134.931 105.308 132.83C105.275 132.407 105.303 132.011 105.391 131.659C105.743 130.141 107.096 129.288 109.268 129.085L164.95 171.952Z" fill="black"/>
<path d="M131.022 172.19L136.231 201.699H73.8364C75.6135 172.847 92.356 141.289 99.7348 132.297C103.431 127.793 110.72 126.833 116.278 130.504C117.592 131.372 132.898 153.956 134.153 157.251C136.645 163.748 131.022 172.19 131.022 172.19Z" fill="#F25A1B"/>
<path d="M110.328 150.136C110.74 150.068 111.14 149.904 111.631 150.068C112.096 150.225 112.435 150.709 112.44 151.217C112.432 151.559 112.603 151.863 112.889 152.06C113.037 152.161 113.197 152.209 113.405 152.227C113.611 152.268 113.818 152.291 114.024 152.347C113.618 152.416 113.204 152.585 112.719 152.395C112.259 152.225 111.944 151.715 111.951 151.226C111.955 150.901 111.766 150.59 111.475 150.408C111.322 150.311 111.165 150.274 110.948 150.256C110.741 150.215 110.535 150.191 110.328 150.136Z" fill="white"/>
<path d="M114.386 176.024C114.798 175.955 115.198 175.791 115.688 175.955C116.153 176.113 116.492 176.597 116.497 177.104C116.489 177.446 116.66 177.751 116.947 177.947C117.094 178.048 117.254 178.096 117.462 178.114C117.669 178.155 117.875 178.179 118.082 178.234C117.676 178.303 117.261 178.472 116.777 178.283C116.316 178.112 116.001 177.602 116.009 177.113C116.012 176.788 115.823 176.477 115.532 176.295C115.38 176.198 115.223 176.162 115.006 176.143C114.799 176.103 114.592 176.079 114.386 176.024Z" fill="white"/>
<path d="M99.093 158.761C99.505 158.693 99.9048 158.528 100.395 158.693C100.86 158.85 101.2 159.334 101.204 159.842C101.196 160.183 101.367 160.488 101.654 160.684C101.801 160.785 101.961 160.833 102.17 160.851C102.376 160.892 102.583 160.916 102.789 160.971C102.383 161.041 101.968 161.209 101.484 161.02C101.024 160.849 100.708 160.339 100.716 159.85C100.719 159.525 100.531 159.215 100.239 159.033C100.087 158.936 99.9301 158.899 99.7129 158.88C99.5066 158.839 99.2998 158.816 99.093 158.761Z" fill="white"/>
<path d="M90.8022 185.274C91.2142 185.205 91.614 185.041 92.1046 185.205C92.5694 185.363 92.9087 185.847 92.9137 186.354C92.9054 186.696 93.0765 187.001 93.363 187.197C93.5104 187.298 93.6705 187.346 93.8789 187.364C94.0852 187.405 94.292 187.428 94.4982 187.484C94.0923 187.553 93.6776 187.722 93.1931 187.532C92.7327 187.362 92.4176 186.852 92.4253 186.363C92.4286 186.039 92.2399 185.727 91.9484 185.545C91.7961 185.448 91.6393 185.412 91.4215 185.393C91.2153 185.353 91.009 185.329 90.8022 185.274Z" fill="white"/>
<path d="M128.114 198.15C128.526 198.082 128.926 197.918 129.417 198.082C129.881 198.239 130.221 198.723 130.226 199.231C130.217 199.573 130.389 199.877 130.675 200.074C130.822 200.175 130.983 200.223 131.191 200.241C131.397 200.281 131.604 200.305 131.81 200.361C131.404 200.43 130.99 200.599 130.505 200.409C130.045 200.239 129.73 199.729 129.737 199.24C129.741 198.915 129.552 198.604 129.26 198.422C129.108 198.325 128.951 198.288 128.734 198.27C128.527 198.229 128.321 198.206 128.114 198.15Z" fill="white"/>
<path d="M77.1254 188.728C76.7173 188.796 76.3042 188.966 75.8164 188.775C75.7262 188.744 75.6415 188.696 75.5623 188.632C75.5942 188.452 75.631 188.278 75.6684 188.097C75.7427 188.235 75.8538 188.351 75.9863 188.442C76.1348 188.542 76.2938 188.59 76.5055 188.606C76.7123 188.648 76.9191 188.669 77.1254 188.728Z" fill="white"/>
<path d="M103.646 131.442C104.058 131.374 104.458 131.21 104.949 131.374C105.413 131.531 105.753 132.015 105.758 132.523C105.749 132.865 105.92 133.169 106.207 133.366C106.354 133.467 106.514 133.515 106.723 133.533C106.929 133.574 107.136 133.597 107.342 133.653C106.936 133.722 106.522 133.891 106.037 133.701C105.577 133.531 105.262 133.021 105.269 132.532C105.273 132.207 105.084 131.896 104.792 131.714C104.64 131.617 104.483 131.58 104.266 131.562C104.059 131.522 103.852 131.497 103.646 131.442Z" fill="white"/>
<path d="M125.826 168.827C125.583 169.166 125.416 169.566 124.953 169.796C124.513 170.014 123.931 169.911 123.568 169.556C123.332 169.308 122.996 169.214 122.655 169.277C122.479 169.31 122.332 169.39 122.172 169.524C121.997 169.641 121.834 169.771 121.649 169.878C121.887 169.542 122.061 169.129 122.538 168.92C122.984 168.716 123.567 168.853 123.908 169.204C124.135 169.436 124.489 169.523 124.824 169.445C125 169.406 125.136 169.321 125.304 169.181C125.477 169.063 125.641 168.934 125.826 168.827Z" fill="white"/>
<path d="M85.7252 160.566C85.4815 160.905 85.3121 161.302 84.8507 161.536C84.5487 161.684 84.178 161.684 83.8601 161.552C83.9184 161.403 83.9767 161.255 84.0405 161.107C84.2418 161.213 84.4855 161.239 84.7187 161.186C84.8985 161.144 85.0366 161.059 85.201 160.921C85.3754 160.799 85.5393 160.672 85.7252 160.566Z" fill="white"/>
<path d="M85.7228 178.371C85.4803 178.71 85.3131 179.11 84.85 179.34C84.41 179.558 83.8281 179.455 83.4656 179.1C83.2297 178.852 82.8931 178.758 82.5521 178.822C82.3761 178.855 82.2292 178.934 82.0692 179.069C81.8943 179.186 81.7315 179.315 81.5461 179.423C81.7843 179.087 81.9581 178.674 82.4349 178.465C82.881 178.261 83.4645 178.398 83.805 178.749C84.0321 178.981 84.3858 179.067 84.7202 178.99C84.8967 178.951 85.0337 178.866 85.2003 178.725C85.3752 178.608 85.538 178.478 85.7228 178.371Z" fill="white"/>
<path d="M103.018 196.36C102.776 196.699 102.609 197.099 102.145 197.329C101.705 197.547 101.124 197.444 100.761 197.089C100.525 196.841 100.189 196.747 99.8476 196.811C99.6716 196.843 99.5247 196.923 99.3641 197.058C99.1892 197.175 99.0264 197.304 98.8411 197.412C99.0792 197.075 99.253 196.663 99.7299 196.455C100.176 196.25 100.759 196.387 101.1 196.738C101.327 196.97 101.681 197.057 102.015 196.979C102.192 196.94 102.329 196.855 102.495 196.715C102.671 196.596 102.834 196.467 103.018 196.36Z" fill="white"/>
<path d="M104.318 174.529C104.075 174.868 103.908 175.267 103.445 175.498C103.005 175.716 102.423 175.613 102.061 175.258C101.825 175.01 101.488 174.916 101.147 174.98C100.971 175.012 100.824 175.092 100.664 175.227C100.489 175.344 100.326 175.473 100.141 175.58C100.379 175.244 100.553 174.832 101.03 174.623C101.476 174.418 102.06 174.555 102.4 174.907C102.627 175.139 102.981 175.225 103.315 175.148C103.492 175.108 103.629 175.023 103.795 174.883C103.97 174.765 104.133 174.636 104.318 174.529Z" fill="white"/>
<path d="M118.979 192.664C118.736 193.003 118.569 193.403 118.106 193.633C117.666 193.851 117.084 193.748 116.721 193.393C116.486 193.145 116.149 193.051 115.808 193.115C115.632 193.147 115.485 193.227 115.325 193.362C115.15 193.479 114.987 193.608 114.802 193.716C115.04 193.38 115.214 192.967 115.691 192.759C116.137 192.554 116.72 192.691 117.061 193.042C117.288 193.274 117.642 193.361 117.977 193.283C118.153 193.244 118.29 193.159 118.457 193.019C118.631 192.9 118.794 192.771 118.979 192.664Z" fill="white"/>
<path d="M115.437 137.486C115.505 137.897 115.669 138.298 115.505 138.788C115.348 139.253 114.864 139.592 114.357 139.597C114.015 139.589 113.71 139.76 113.514 140.047C113.413 140.194 113.365 140.354 113.347 140.562C113.306 140.769 113.282 140.975 113.227 141.182C113.158 140.776 112.989 140.362 113.179 139.877C113.349 139.417 113.859 139.102 114.348 139.109C114.673 139.113 114.984 138.924 115.166 138.632C115.262 138.48 115.299 138.323 115.318 138.106C115.358 137.899 115.382 137.693 115.437 137.486Z" fill="white"/>
<path d="M127.58 183.646C127.648 184.058 127.812 184.457 127.648 184.948C127.491 185.413 127.007 185.752 126.499 185.757C126.158 185.749 125.853 185.92 125.657 186.206C125.556 186.354 125.508 186.514 125.49 186.722C125.449 186.929 125.425 187.135 125.37 187.342C125.3 186.936 125.132 186.521 125.321 186.036C125.492 185.576 126.002 185.26 126.491 185.268C126.816 185.271 127.126 185.083 127.308 184.791C127.405 184.638 127.442 184.482 127.461 184.264C127.501 184.059 127.525 183.852 127.58 183.646Z" fill="white"/>
<path d="M125.213 156.168C125.282 156.58 125.446 156.979 125.282 157.47C125.124 157.935 124.64 158.274 124.133 158.279C123.792 158.271 123.487 158.442 123.291 158.728C123.189 158.876 123.142 159.036 123.123 159.244C123.083 159.451 123.059 159.657 123.004 159.864C122.934 159.458 122.765 159.043 122.955 158.558C123.126 158.098 123.635 157.782 124.124 157.79C124.449 157.793 124.76 157.605 124.942 157.313C125.039 157.161 125.075 157.004 125.095 156.787C125.134 156.581 125.158 156.374 125.213 156.168Z" fill="white"/>
<path d="M112.674 163.225C112.742 163.636 112.906 164.036 112.742 164.527C112.585 164.992 112.101 165.331 111.593 165.336C111.252 165.328 110.947 165.499 110.751 165.785C110.65 165.933 110.602 166.093 110.584 166.301C110.543 166.508 110.519 166.714 110.464 166.921C110.394 166.515 110.226 166.1 110.415 165.615C110.586 165.155 111.096 164.839 111.585 164.847C111.909 164.85 112.22 164.662 112.402 164.37C112.499 164.218 112.536 164.061 112.555 163.843C112.595 163.637 112.619 163.431 112.674 163.225Z" fill="white"/>
<path d="M84.7378 193.204C84.806 193.616 84.9705 194.016 84.806 194.506C84.6487 194.971 84.1647 195.311 83.6576 195.315C83.3161 195.307 83.0114 195.478 82.815 195.765C82.7138 195.912 82.666 196.072 82.6478 196.281C82.6071 196.488 82.5835 196.694 82.5279 196.901C82.4586 196.495 82.2898 196.08 82.4795 195.595C82.65 195.135 83.1599 194.819 83.6488 194.828C83.9739 194.831 84.2846 194.642 84.4661 194.351C84.5635 194.198 84.5998 194.042 84.619 193.824C84.6592 193.617 84.6828 193.411 84.7378 193.204Z" fill="white"/>
<path d="M93.7535 149.973C93.8217 150.385 93.9861 150.785 93.8217 151.276C93.6644 151.741 93.1804 152.08 92.6733 152.085C92.3317 152.077 92.027 152.248 91.8307 152.534C91.7295 152.682 91.6816 152.842 91.6635 153.05C91.6228 153.256 91.5991 153.463 91.5436 153.669C91.4743 153.264 91.3054 152.849 91.4952 152.364C91.6657 151.904 92.1755 151.588 92.6645 151.597C92.9895 151.6 93.3003 151.411 93.4818 151.12C93.5791 150.967 93.6154 150.811 93.6341 150.593C93.6748 150.387 93.6985 150.18 93.7535 149.973Z" fill="white"/>
<path d="M93.7535 168.062C93.8217 168.474 93.9861 168.874 93.8217 169.364C93.6644 169.829 93.1804 170.168 92.6733 170.173C92.3317 170.165 92.027 170.336 91.8307 170.623C91.7295 170.77 91.6816 170.93 91.6635 171.139C91.6228 171.345 91.5991 171.552 91.5436 171.758C91.4743 171.352 91.3054 170.937 91.4952 170.453C91.6657 169.992 92.1755 169.677 92.6645 169.684C92.9895 169.688 93.3003 169.499 93.4818 169.208C93.5791 169.055 93.6154 168.898 93.6341 168.681C93.6748 168.475 93.6985 168.268 93.7535 168.062Z" fill="white"/>
<path d="M108.294 183.646C108.362 184.058 108.526 184.457 108.362 184.948C108.205 185.413 107.721 185.752 107.214 185.757C106.872 185.749 106.567 185.92 106.371 186.206C106.27 186.354 106.222 186.514 106.204 186.722C106.163 186.929 106.139 187.135 106.084 187.342C106.015 186.936 105.846 186.521 106.035 186.036C106.206 185.576 106.716 185.26 107.205 185.268C107.53 185.271 107.841 185.083 108.022 184.791C108.119 184.638 108.156 184.482 108.175 184.264C108.215 184.059 108.239 183.852 108.294 183.646Z" fill="white"/>
<path d="M123.146 146.797C123.389 146.457 123.556 146.058 124.019 145.828C124.459 145.61 125.041 145.713 125.403 146.068C125.639 146.315 125.976 146.409 126.317 146.346C126.492 146.313 126.64 146.233 126.8 146.099C126.975 145.982 127.137 145.852 127.323 145.745C127.085 146.081 126.911 146.494 126.434 146.702C125.988 146.907 125.405 146.77 125.064 146.418C124.837 146.186 124.484 146.1 124.149 146.177C123.973 146.216 123.836 146.302 123.669 146.442C123.494 146.56 123.331 146.689 123.146 146.797Z" fill="white"/>
<path d="M100.93 144.949C101.174 144.609 101.34 144.21 101.803 143.98C102.243 143.762 102.825 143.865 103.188 144.22C103.424 144.467 103.76 144.562 104.101 144.498C104.277 144.466 104.424 144.386 104.584 144.251C104.759 144.134 104.922 144.005 105.107 143.898C104.869 144.234 104.695 144.646 104.219 144.855C103.773 145.06 103.189 144.923 102.849 144.571C102.622 144.339 102.268 144.253 101.933 144.33C101.757 144.37 101.62 144.455 101.453 144.595C101.278 144.712 101.115 144.841 100.93 144.949Z" fill="white"/>
<path d="M96.6241 135.116C88.3301 141.965 58.5333 167.326 60.3098 176.328C62.1094 185.447 69.013 192.805 74.3205 187.718C78.7013 183.519 98.1476 152.373 101.675 144.043C105.034 136.111 104.773 128.387 96.6241 135.116Z" fill="#DD6A57"/>
<path d="M59.5662 173.811C59.5585 180.122 63.7929 192.027 72.0044 189.812C77.3823 188.362 99.6914 151.594 103.287 142.869C107.452 132.762 103.85 128.796 96.1687 134.749C88.5193 140.677 59.5777 164.786 59.5662 173.811Z" fill="#F25A1B"/>
<path d="M82.7315 147.362C82.3289 147.431 81.9104 147.601 81.428 147.41C81.3642 147.384 81.301 147.357 81.2427 147.315C81.3488 147.225 81.4495 147.135 81.5501 147.039C81.5661 147.055 81.582 147.066 81.598 147.076C81.7465 147.177 81.9054 147.225 82.1117 147.241C82.3179 147.283 82.5247 147.309 82.7315 147.362Z" fill="white"/>
<path d="M72.7607 168.807C73.1721 168.738 73.5725 168.574 74.0631 168.738C74.5279 168.896 74.8672 169.38 74.8722 169.887C74.8639 170.229 75.035 170.534 75.3215 170.73C75.4689 170.831 75.629 170.879 75.8374 170.897C76.0437 170.938 76.2505 170.961 76.4567 171.017C76.0508 171.086 75.6361 171.255 75.1516 171.065C74.6912 170.894 74.3761 170.385 74.3838 169.896C74.3871 169.571 74.1984 169.26 73.9069 169.078C73.7546 168.981 73.5978 168.945 73.38 168.926C73.1738 168.886 72.967 168.862 72.7607 168.807Z" fill="white"/>
<path d="M75.3929 187.048C75.2708 187.18 75.1493 187.313 75.0327 187.435C74.9848 187.175 74.81 186.937 74.5718 186.788C74.4184 186.693 74.2643 186.656 74.0471 186.635C73.8403 186.597 73.634 186.571 73.4272 186.518C73.8408 186.449 74.2379 186.285 74.7307 186.449C75.0167 186.545 75.2554 186.767 75.3929 187.048Z" fill="white"/>
<path d="M85.7231 160.565C85.4805 160.905 85.3133 161.304 84.8502 161.534C84.4102 161.752 83.8283 161.649 83.4659 161.294C83.2299 161.047 82.8933 160.953 82.5523 161.016C82.3763 161.049 82.2295 161.129 82.0694 161.263C81.8945 161.38 81.7317 161.51 81.5464 161.617C81.7845 161.281 81.9583 160.868 82.4352 160.659C82.8812 160.455 83.4648 160.592 83.8052 160.943C84.0324 161.175 84.386 161.262 84.7204 161.184C84.897 161.145 85.0339 161.06 85.2006 160.92C85.3755 160.802 85.5383 160.673 85.7231 160.565Z" fill="white"/>
<path d="M94.9961 136.397C95.0643 136.809 95.2288 137.209 95.0643 137.7C94.907 138.164 94.423 138.504 93.9159 138.509C93.5744 138.5 93.2697 138.672 93.0733 138.958C92.9721 139.105 92.9243 139.266 92.9061 139.474C92.8654 139.68 92.8418 139.887 92.7862 140.093C92.7169 139.687 92.5481 139.273 92.7378 138.788C92.9083 138.328 93.4182 138.012 93.9071 138.02C94.2322 138.023 94.5429 137.834 94.725 137.543C94.8223 137.391 94.8586 137.234 94.8773 137.016C94.9175 136.811 94.9411 136.604 94.9961 136.397Z" fill="white"/>
<path d="M93.7537 149.973C93.8219 150.385 93.9864 150.785 93.8219 151.276C93.6646 151.741 93.1806 152.08 92.6735 152.085C92.3319 152.077 92.0272 152.248 91.8309 152.534C91.7297 152.682 91.6818 152.842 91.6637 153.05C91.623 153.256 91.5993 153.463 91.5438 153.669C91.4745 153.264 91.3056 152.849 91.4954 152.364C91.6659 151.904 92.1758 151.588 92.6647 151.597C92.9898 151.6 93.3005 151.411 93.482 151.12C93.5793 150.967 93.6157 150.811 93.6344 150.593C93.6751 150.387 93.6987 150.18 93.7537 149.973Z" fill="white"/>
<path d="M67.6946 178.912C67.7628 179.323 67.9273 179.724 67.7628 180.214C67.6055 180.679 67.1215 181.018 66.6144 181.023C66.2729 181.015 65.9682 181.186 65.7718 181.473C65.6706 181.62 65.6228 181.78 65.6046 181.988C65.5639 182.195 65.5403 182.401 65.4847 182.608C65.4154 182.202 65.2466 181.787 65.4363 181.303C65.6068 180.842 66.1167 180.527 66.6056 180.534C66.9307 180.538 67.2414 180.349 67.4229 180.057C67.5203 179.905 67.5566 179.748 67.5758 179.53C67.6154 179.325 67.6396 179.119 67.6946 178.912Z" fill="white"/>
<path d="M102.807 143.966C102.743 144.103 102.675 144.252 102.6 144.4C102.399 144.3 102.16 144.278 101.933 144.332C101.758 144.368 101.62 144.454 101.45 144.597C101.275 144.713 101.117 144.84 100.931 144.946C101.175 144.607 101.339 144.21 101.805 143.977C102.113 143.823 102.489 143.828 102.807 143.966Z" fill="white"/>
<path d="M97.9826 155.578C97.239 156.61 96.4189 157.59 95.6286 158.586C95.4416 158.822 95.2557 159.061 95.0703 159.3C95.5631 158.349 96.0444 157.392 96.5218 156.431C97.2153 155.036 97.9215 153.641 98.4633 152.18C98.4979 152.086 98.3566 152.043 98.3087 152.118C97.5657 153.286 96.97 154.527 96.2677 155.717C95.567 156.905 94.8883 158.109 94.2129 159.31C92.8604 161.716 91.4788 164.105 90.0433 166.462C87.1745 171.172 84.122 175.773 80.965 180.294C80.0817 181.56 79.2039 182.835 78.2788 184.071C77.335 185.332 76.4737 186.651 75.5057 187.895C75.4722 187.938 75.5321 187.998 75.5679 187.955C76.4583 186.879 77.3779 185.828 78.2849 184.766C79.1775 183.721 79.9954 182.605 80.8385 181.521C82.538 179.336 84.1473 177.077 85.7115 174.795C88.8526 170.212 91.7439 165.441 94.407 160.565C94.4736 160.442 94.5346 160.318 94.6006 160.195C95.0505 159.711 95.4933 159.221 95.9096 158.703C96.6967 157.722 97.3759 156.672 98.0651 155.623C98.0992 155.572 98.0172 155.53 97.9826 155.578Z" fill="#263238"/>
<path d="M115.127 130.469C115.127 130.469 116.947 137.927 114.772 138.956C110.72 140.874 103.477 134.916 103.005 133.847C102.886 133.573 102.285 126.409 101.831 120.838C101.538 117.254 101.31 114.331 101.31 114.331L115.474 119.965L115.153 129.767L115.127 130.469Z" fill="#DD6A57"/>
<path d="M115.474 119.965L115.153 129.767C112.28 129.274 105.954 127.43 101.831 120.838C101.538 117.255 101.31 114.331 101.31 114.331L103.085 114.969L115.474 119.965Z" fill="#263238"/>
<path d="M118.106 108.824C118.323 112.83 121.348 115.923 124.863 115.733C128.377 115.542 131.05 112.141 130.833 108.135C130.617 104.129 127.592 101.036 124.077 101.226C120.562 101.417 117.889 104.818 118.106 108.824Z" fill="#455A64"/>
<path d="M116.058 109.189C116.299 113.645 119.664 117.086 123.574 116.874C127.483 116.663 130.457 112.879 130.216 108.422C129.975 103.965 126.61 100.525 122.701 100.736C118.79 100.948 115.816 104.733 116.058 109.189Z" fill="#C7C7C7"/>
<path d="M127.995 105.905C129.324 123.067 119.195 125.801 115.494 126.083C112.135 126.339 100.662 126.785 97.5667 109.853C94.4718 92.9208 102.031 86.878 109.684 85.8847C117.337 84.8919 126.666 88.7436 127.995 105.905Z" fill="#DD6A57"/>
<path d="M122.665 102.868C122.26 102.832 121.892 102.732 121.495 102.655C121.047 102.569 120.681 102.546 120.343 102.211C120.162 102.031 120.165 101.656 120.323 101.463C120.691 101.015 121.265 100.984 121.809 101.067C122.398 101.156 122.83 101.375 123.231 101.816C123.619 102.243 123.199 102.914 122.665 102.868Z" fill="#263238"/>
<path d="M110.875 103.768C111.275 103.698 111.633 103.566 112.022 103.456C112.461 103.331 112.822 103.276 113.13 102.913C113.295 102.719 113.26 102.345 113.085 102.167C112.68 101.752 112.105 101.771 111.571 101.9C110.991 102.04 110.58 102.296 110.219 102.77C109.87 103.229 110.346 103.861 110.875 103.768Z" fill="#263238"/>
<path d="M113.851 107.948C113.838 107.905 113.765 108.012 113.77 108.06C113.91 109.223 113.875 110.581 112.853 111.061C112.821 111.076 112.83 111.135 112.869 111.126C114.142 110.83 114.17 109.029 113.851 107.948Z" fill="#263238"/>
<path d="M112.701 106.822C110.811 106.845 110.997 110.624 112.748 110.602C114.471 110.58 114.285 106.802 112.701 106.822Z" fill="#263238"/>
<path d="M111.968 107.057C111.649 107.287 111.344 107.681 110.948 107.739C110.49 107.808 110.123 107.429 109.803 107.064C109.77 107.026 109.739 107.06 109.74 107.11C109.765 107.835 110.08 108.564 110.862 108.634C111.575 108.698 112.052 108.031 112.197 107.295C112.224 107.158 112.097 106.965 111.968 107.057Z" fill="#263238"/>
<path d="M120.674 107.182C120.681 107.137 120.768 107.233 120.769 107.282C120.78 108.454 120.991 109.795 122.066 110.14C122.1 110.151 122.099 110.21 122.059 110.206C120.758 110.078 120.497 108.294 120.674 107.182Z" fill="#263238"/>
<path d="M121.669 105.916C123.547 105.695 123.851 109.466 122.111 109.671C120.4 109.872 120.096 106.101 121.669 105.916Z" fill="#263238"/>
<path d="M122.475 106.1C122.79 106.276 123.113 106.616 123.472 106.61C123.886 106.604 124.158 106.171 124.391 105.759C124.415 105.717 124.447 105.746 124.452 105.795C124.53 106.515 124.353 107.285 123.671 107.479C123.05 107.656 122.536 107.075 122.307 106.371C122.264 106.241 122.349 106.03 122.475 106.1Z" fill="#263238"/>
<path d="M114.917 117.017C115.199 117.291 115.481 117.668 115.906 117.702C116.314 117.735 116.792 117.548 117.165 117.402C117.202 117.388 117.239 117.427 117.216 117.462C116.913 117.913 116.274 118.197 115.73 118.104C115.2 118.014 114.935 117.556 114.805 117.071C114.786 117.003 114.876 116.978 114.917 117.017Z" fill="#263238"/>
<path d="M119.55 112.49C119.55 112.49 119.898 114.223 119.949 115.047C119.953 115.124 119.756 115.173 119.477 115.206C119.464 115.211 119.457 115.217 119.445 115.209C118.003 115.525 116.507 115.112 115.55 113.978C115.488 113.901 115.587 113.81 115.666 113.857C116.801 114.588 118.014 114.721 119.305 114.663C119.35 114.432 118.61 111.716 118.741 111.698C119.189 111.632 120.095 111.885 120.638 112.008C120.018 108.378 118.82 104.877 118.257 101.254C118.24 101.124 118.424 101.074 118.469 101.187C119.984 104.768 120.789 108.929 121.526 112.661C121.623 113.126 119.888 112.61 119.55 112.49Z" fill="#263238"/>
<path d="M118.904 114.798C118.904 114.798 118.293 115.864 117.34 116.334C116.989 116.509 116.601 116.608 116.174 116.546C115.298 116.423 115.185 115.646 115.262 114.96C115.324 114.397 115.522 113.894 115.522 113.894C115.522 113.894 116.9 114.909 118.904 114.798Z" fill="#263238"/>
<path d="M117.34 116.334C116.989 116.509 116.601 116.608 116.174 116.546C115.298 116.423 115.185 115.646 115.262 114.96C116.184 114.946 117.159 115.458 117.34 116.334Z" fill="#F392B9"/>
<path d="M97.8181 108.314C99.692 108.298 104.819 103.404 105.427 94.3893C105.427 94.3893 104.321 102.447 103.652 103.603C102.983 104.76 106.519 100.849 107.111 93.5847C107.111 93.5847 110.993 96.6988 114.381 97.8367C117.768 98.9747 119.872 99.0489 120.13 98.8135C120.388 98.5776 115.413 96.7268 114.126 95.0807C114.126 95.0807 123.05 99.7953 127.247 100.331C127.733 100.393 126.618 92.9219 120.321 88.3371C114.024 83.7518 105.678 85.2978 102.767 87.8366C102.767 87.8366 99.4852 88.1342 95.699 92.7729C91.9122 97.4099 95.7996 108.331 97.8181 108.314Z" fill="#263238"/>
<path d="M100.396 110.96C100.396 110.96 96.6893 105.553 94.2385 106.87C91.7883 108.187 94.541 116.001 97.3933 117.093C100.245 118.185 101.308 115.564 101.308 115.564L100.396 110.96Z" fill="#DD6A57"/>
<path d="M95.0838 109.09C95.0376 109.086 95.0283 109.15 95.0679 109.167C97.0671 109.998 98.1066 111.869 98.8282 113.805C98.2381 113.057 97.4296 112.643 96.428 113.343C96.3752 113.38 96.4247 113.463 96.4814 113.451C97.3053 113.282 97.8965 113.431 98.446 114.094C98.8348 114.564 99.0983 115.156 99.3749 115.697C99.4673 115.877 99.7918 115.784 99.7258 115.577C99.7209 115.562 99.7148 115.546 99.7099 115.53C99.7836 112.972 97.8283 109.373 95.0838 109.09Z" fill="#263238"/>
<path d="M99.016 116.348C99.0039 116.68 98.7251 116.94 98.3929 116.928C98.0607 116.917 97.8011 116.637 97.8126 116.305C97.8247 115.973 98.1036 115.713 98.4358 115.725C98.768 115.737 99.0281 116.016 99.016 116.348Z" fill="white"/>
<path d="M97.3658 115.246C97.3581 115.456 97.1816 115.62 96.972 115.612C96.7619 115.604 96.598 115.428 96.6057 115.218C96.6134 115.008 96.7894 114.844 96.9995 114.852C97.2096 114.859 97.3735 115.036 97.3658 115.246Z" fill="white"/>
<path d="M94.4054 110.283L93.2262 110.529C93.0964 110.556 92.9688 110.473 92.9418 110.343C92.9149 110.213 92.9979 110.086 93.1277 110.059L94.3069 109.812C94.4367 109.785 94.5643 109.868 94.5913 109.999C94.6188 110.128 94.5352 110.255 94.4054 110.283Z" fill="#F25A1B"/>
<path d="M94.2738 109.52L93.0715 109.594C92.939 109.602 92.8251 109.502 92.8169 109.369C92.8086 109.237 92.9093 109.123 93.0418 109.114L94.2441 109.04C94.3767 109.032 94.4905 109.133 94.4988 109.265C94.507 109.398 94.4064 109.512 94.2738 109.52Z" fill="#F25A1B"/>
<path d="M96.8375 106.83C96.8375 106.83 95.3877 98.1733 97.4617 93.1117C99.7712 87.4775 110.8 82.7805 119.425 87.7327C119.425 87.7327 106.315 85.1235 100.946 93.1529C98.6844 96.5354 99.7706 106.773 99.7706 106.773L96.8375 106.83Z" fill="#C7C7C7"/>
<path d="M99.2641 119.228C103.156 118.801 105.917 114.859 105.43 110.423C104.944 105.987 101.394 102.737 97.5025 103.164C93.6106 103.59 90.8499 107.532 91.3364 111.968C91.8228 116.404 95.3722 119.655 99.2641 119.228Z" fill="#C7C7C7"/>
<path d="M103.358 110.396C103.795 114.384 101.314 117.928 97.8158 118.312C94.3172 118.695 91.1267 115.774 90.6889 111.786C90.2516 107.798 92.7327 104.254 96.2312 103.871C99.7298 103.487 102.921 106.408 103.358 110.396Z" fill="#455A64"/>
<path d="M112.671 122.117L106.935 121.095L101.524 116.862L102.177 116.027L107.38 120.097L112.857 121.074L112.671 122.117Z" fill="#C7C7C7"/>
<path d="M111.92 121.416C112.073 119.781 116.457 119.342 116.225 121.82C115.992 124.304 111.766 123.058 111.92 121.416Z" fill="#37474F"/>
<path d="M115.168 130.256L113.722 138.285L102.571 130.809L100.583 134.358C100.583 134.358 112.675 147.399 112.592 146.714L114.327 139.692L119.656 143.226L116.991 132.139L115.168 130.256Z" fill="white"/>
<path d="M75.0745 186.907C69.9722 193.137 61.6661 186.019 60.7184 180.474C58.4937 167.461 61.3564 143.586 65.1525 132.268C66.3741 128.626 90.5543 135.561 90.6115 139.668C90.6703 143.965 85.4272 174.265 75.0745 186.907Z" fill="#DD6A57"/>
<path d="M64.5029 138.816C64.5029 138.816 64.867 126.865 69.1163 118.901C72.055 113.395 79.7847 102.126 98.3983 101.329C102.813 101.14 109.239 104.001 102.14 106.929C97.0976 109.008 93.2718 108.804 90.5586 110.548C90.5586 110.548 98.2993 115.158 98.3164 119.588C98.3241 121.568 98.2179 126.973 97.5354 131.169C97.5354 131.169 96.5811 131.266 95.3552 131.217C95.3552 131.217 95.2408 135.365 90.6103 139.667L64.5029 138.816Z" fill="#DD6A57"/>
<path d="M72.7607 114.094C75.8193 112.932 82.3428 110.579 88.3483 110.51C95.0192 110.434 107.89 112.084 107.896 117.01C107.9 120.621 102.931 120.423 102.931 120.423C102.931 120.423 108.107 122.226 107.398 125.49C106.751 128.463 102.916 128.08 102.916 128.08C102.916 128.08 105.867 129.714 104.693 132.458C103.28 135.758 97.3254 131.792 93.0057 133.899C92.0349 134.372 72.7607 114.094 72.7607 114.094Z" fill="#DD6A57"/>
<path d="M87.2536 117.572C90.3088 116.951 97.6101 117.322 102.863 120.301C102.982 120.369 102.995 120.495 102.873 120.457C96.3929 118.405 89.9887 117.75 87.2541 117.635C87.2173 117.633 87.2189 117.579 87.2536 117.572Z" fill="#263238"/>
<path d="M87.5266 124.304C90.2177 124.04 97.7263 124.758 102.945 127.96C103.062 128.032 103.066 128.159 102.946 128.116C96.2644 125.693 90.2469 124.645 87.5238 124.368C87.487 124.363 87.4919 124.308 87.5266 124.304Z" fill="#263238"/>
<path d="M107.315 114.864C106.59 114.06 105.561 113.763 104.659 113.226C104.61 113.197 104.567 113.28 104.617 113.301C106.204 113.964 107.871 115.54 107.607 117.401C107.288 119.648 104.601 120.217 102.733 120.269C102.641 120.272 102.685 120.373 102.78 120.39C104.853 120.751 107.781 120.031 108.163 117.59C108.322 116.576 107.998 115.623 107.315 114.864Z" fill="#263238"/>
<path d="M102.478 120.186C102.424 120.171 102.386 120.242 102.437 120.261C105.31 121.371 107.077 123.359 107.225 124.49C107.371 125.602 107.04 126.671 105.952 127.349C104.998 127.945 103.76 128.027 102.678 127.863C102.589 127.85 102.553 127.984 102.644 128.001C103.992 128.248 106.58 128.55 107.513 126.38C108.293 124.563 107.42 121.534 102.478 120.186Z" fill="#263238"/>
<path d="M104.592 129.361C104.042 128.507 103.173 128.05 102.241 127.727C102.195 127.711 102.164 127.789 102.209 127.806C103.888 128.47 105.274 130.444 104.749 132.274C104.717 132.388 104.885 132.424 104.924 132.317C105.288 131.342 105.153 130.232 104.592 129.361Z" fill="#263238"/>
<path d="M105.494 103.887C105.366 103.066 104.324 102.257 102.33 101.864C102.319 101.862 102.315 101.878 102.325 101.881C103.98 102.334 105.18 103.221 105.17 104.029C105.159 104.845 104.568 105.66 102.818 106.615C102.77 106.641 102.808 106.669 102.858 106.644C103.891 106.154 105.727 105.372 105.494 103.887Z" fill="#263238"/>
<path d="M63.2578 134.273L93.1745 144.35C93.1745 144.35 82.2768 177.927 77.1255 185.136C71.9835 192.331 64.8368 191.047 60.7179 182.105C56.5995 173.162 63.2578 134.273 63.2578 134.273Z" fill="#F25A1B"/>
<path d="M79.0366 145.153C79.4486 145.085 79.8484 144.92 80.339 145.085C80.8038 145.242 81.1431 145.726 81.1481 146.233C81.1398 146.575 81.3109 146.88 81.5974 147.076C81.7448 147.177 81.9049 147.225 82.1133 147.243C82.3196 147.284 82.5264 147.308 82.7326 147.363C82.3267 147.432 81.912 147.601 81.4275 147.412C80.9671 147.241 80.652 146.731 80.6597 146.242C80.663 145.917 80.4743 145.606 80.1828 145.424C80.0299 145.328 79.8737 145.291 79.6559 145.272C79.4497 145.232 79.2434 145.208 79.0366 145.153Z" fill="white"/>
<path d="M72.7607 168.807C73.1721 168.738 73.5725 168.574 74.0631 168.738C74.5279 168.896 74.8672 169.38 74.8722 169.887C74.8639 170.229 75.035 170.534 75.3215 170.73C75.4689 170.831 75.629 170.879 75.8374 170.897C76.0437 170.938 76.2505 170.961 76.4567 171.017C76.0508 171.086 75.6361 171.255 75.1516 171.065C74.6912 170.894 74.3761 170.385 74.3838 169.896C74.3871 169.571 74.1984 169.26 73.9069 169.078C73.7546 168.981 73.5978 168.945 73.38 168.926C73.1738 168.886 72.967 168.862 72.7607 168.807Z" fill="white"/>
<path d="M75.4325 187.132C75.3005 187.264 75.1685 187.385 75.0365 187.501C75.009 187.215 74.8275 186.951 74.569 186.786C74.4205 186.692 74.2666 186.654 74.0466 186.637C73.8431 186.599 73.634 186.571 73.425 186.516C73.843 186.45 74.239 186.285 74.7285 186.45C75.042 186.555 75.306 186.813 75.4325 187.132Z" fill="white"/>
<path d="M85.7231 160.565C85.4805 160.905 85.3133 161.304 84.8502 161.534C84.4102 161.752 83.8283 161.649 83.4659 161.294C83.2299 161.047 82.8933 160.953 82.5523 161.016C82.3763 161.049 82.2295 161.129 82.0694 161.263C81.8945 161.38 81.7317 161.51 81.5464 161.617C81.7845 161.281 81.9583 160.868 82.4352 160.659C82.8812 160.455 83.4648 160.592 83.8052 160.943C84.0324 161.175 84.386 161.262 84.7204 161.184C84.897 161.145 85.0339 161.06 85.2006 160.92C85.3755 160.802 85.5383 160.673 85.7231 160.565Z" fill="white"/>
<path d="M65.3489 162.684C65.1063 163.023 64.9391 163.423 64.476 163.653C64.036 163.871 63.4541 163.768 63.0917 163.413C62.8557 163.165 62.5191 163.071 62.1781 163.135C62.0021 163.167 61.8553 163.247 61.6947 163.382C61.5198 163.499 61.357 163.628 61.1716 163.736C61.4098 163.4 61.5836 162.987 62.0604 162.778C62.5065 162.573 63.09 162.71 63.4305 163.062C63.6576 163.294 64.0113 163.38 64.3457 163.303C64.5222 163.264 64.6592 163.178 64.8258 163.038C65.0013 162.92 65.1641 162.791 65.3489 162.684Z" fill="white"/>
<path d="M68.6791 140.642C68.4366 140.981 68.2694 141.38 67.8063 141.611C67.3663 141.828 66.7844 141.726 66.4219 141.37C66.186 141.123 65.8494 141.029 65.5084 141.093C65.3324 141.125 65.1855 141.205 65.0249 141.34C64.85 141.457 64.6872 141.586 64.5024 141.693C64.7406 141.357 64.9144 140.945 65.3912 140.736C65.8373 140.531 66.4208 140.668 66.7613 141.019C66.9884 141.252 67.3421 141.338 67.6765 141.26C67.853 141.221 67.99 141.136 68.1566 140.996C68.3315 140.878 68.4943 140.749 68.6791 140.642Z" fill="white"/>
<path d="M71.6663 151.821C71.7345 152.233 71.8989 152.633 71.7345 153.124C71.5772 153.589 71.0932 153.928 70.5861 153.933C70.2445 153.925 69.9398 154.096 69.7435 154.382C69.6423 154.53 69.5944 154.69 69.5763 154.898C69.5356 155.104 69.5119 155.311 69.4564 155.517C69.3871 155.112 69.2182 154.697 69.408 154.212C69.5785 153.752 70.0883 153.436 70.5773 153.444C70.9023 153.447 71.2131 153.259 71.3946 152.967C71.4919 152.814 71.5282 152.658 71.5475 152.441C71.5871 152.235 71.6107 152.028 71.6663 151.821Z" fill="white"/>
<path d="M67.6946 178.912C67.7628 179.323 67.9273 179.724 67.7628 180.214C67.6055 180.679 67.1215 181.018 66.6144 181.023C66.2729 181.015 65.9682 181.186 65.7718 181.473C65.6706 181.62 65.6228 181.78 65.6046 181.988C65.5639 182.195 65.5403 182.401 65.4847 182.608C65.4154 182.202 65.2466 181.787 65.4363 181.303C65.6068 180.842 66.1167 180.527 66.6056 180.534C66.9307 180.538 67.2414 180.349 67.4229 180.057C67.5203 179.905 67.5566 179.748 67.5758 179.53C67.6154 179.325 67.6396 179.119 67.6946 178.912Z" fill="white"/>
<path d="M89.8337 149.953C88.2393 149.126 86.4897 148.63 84.8408 147.991C83.138 147.331 81.416 146.745 79.6978 146.155C76.3532 145.006 72.9795 143.985 69.6091 142.971C67.6473 142.381 65.6717 141.885 63.706 141.323C63.635 141.303 63.6075 141.442 63.6779 141.469C67.0582 142.739 70.4231 144.048 73.8249 145.234C77.1678 146.398 80.5217 147.509 83.8976 148.507C84.8623 148.792 85.8336 149.036 86.7994 149.312C87.7888 149.596 88.7986 149.951 89.8046 150.107C89.8816 150.118 89.9052 149.99 89.8337 149.953Z" fill="#263238"/>
<path d="M93.7761 144.423C93.6953 144.153 90.3771 143.292 90.2077 143.239C90.1544 143.223 90.1351 143.305 90.1868 143.323C90.3502 143.377 93.1574 144.549 93.148 144.574C91.5261 148.98 89.991 153.416 88.4087 157.838C86.8214 162.273 85.1989 166.697 83.7023 171.163C82.8625 173.67 82.9202 173.93 83.8112 171.758C84.6984 169.596 85.6147 167.833 86.432 165.642C88.0803 161.227 89.6302 156.771 91.173 152.318C92.0486 149.791 93.8031 144.513 93.7761 144.423Z" fill="#263238"/>
<path d="M146.006 196.694H128.994C125.559 196.694 122.775 193.91 122.775 190.476C122.775 187.042 125.559 184.258 128.994 184.258H146.006C149.44 184.258 152.225 187.042 152.225 190.476C152.225 193.91 149.44 196.694 146.006 196.694Z" fill="#455A64"/>
<path d="M132.713 190.369C132.716 190.159 132.794 189.977 132.901 189.805C132.948 189.729 133.001 189.655 133.051 189.581L133.378 189.253C133.504 189.163 133.628 189.067 133.758 188.981C134.281 188.634 134.863 188.435 135.473 188.314C136.894 188.032 138.315 188.04 139.735 188.319C140.337 188.438 140.912 188.635 141.428 188.977C141.563 189.066 141.69 189.164 141.821 189.258L142.137 189.573C142.216 189.698 142.306 189.818 142.369 189.95C142.428 190.074 142.457 190.213 142.503 190.357C142.453 190.36 142.43 190.364 142.407 190.364C141.51 190.366 140.613 190.366 139.715 190.369C139.66 190.369 139.633 190.351 139.607 190.304C139.433 189.994 139.17 189.819 138.811 189.797C138 189.746 137.189 189.744 136.377 189.798C136.019 189.821 135.757 189.998 135.583 190.308C135.562 190.346 135.544 190.372 135.491 190.373C134.581 190.371 133.669 190.373 132.758 190.373C132.745 190.373 132.732 190.371 132.713 190.369Z" fill="white"/>
<path d="M132.711 191.943C132.71 191.627 132.71 191.31 132.71 190.993C132.71 190.969 132.712 190.945 132.713 190.927C133.633 190.926 134.548 190.925 135.471 190.924C135.468 190.986 135.462 191.056 135.462 191.126C135.462 191.396 135.463 191.666 135.463 191.935C135.462 192.169 135.346 192.285 135.112 192.286C134.427 192.287 133.742 192.288 133.056 192.288C132.827 192.289 132.711 192.173 132.711 191.943Z" fill="white"/>
<path d="M139.732 191.958C139.736 191.612 139.749 191.266 139.758 190.921C140.642 190.92 141.557 190.919 142.477 190.918C142.479 190.934 142.481 190.955 142.481 190.976C142.482 191.298 142.483 191.62 142.483 191.942C142.482 192.16 142.365 192.279 142.147 192.279C141.454 192.281 140.76 192.282 140.067 192.281C139.857 192.281 139.73 192.163 139.732 191.958Z" fill="white"/>
<path d="M253.211 100.529C256.122 103.441 256.964 107.639 255.739 111.29L249.662 105.213L245.182 107.346L243.049 111.826L249.13 117.907C245.471 119.132 241.276 118.286 238.365 115.375C234.268 111.278 234.264 104.63 238.365 100.529C242.462 96.4325 249.114 96.4325 253.211 100.529Z" fill="#F25A1B"/>
<path d="M204.861 81.8713C201.95 78.9602 201.109 74.7615 202.334 71.1106L208.41 77.1875L212.891 75.0552L215.023 70.5749L208.942 64.4941C212.601 63.2692 216.796 64.1146 219.707 67.0257C223.804 71.1227 223.808 77.7705 219.707 81.8719C215.611 85.9683 208.958 85.9683 204.861 81.8713Z" fill="#F25A1B"/>
<path d="M218.468 74.0223L211.855 80.6353L238.754 107.535L245.367 100.922L218.468 74.0223Z" fill="#F25A1B"/>
<path d="M139.319 91.9727C138.261 90.3612 137.666 88.5484 137.666 86.6322C137.666 79.8666 145.095 74.3815 154.254 74.3815C163.413 74.3815 170.835 79.8672 170.835 86.6322C170.835 93.3972 163.413 98.8829 154.254 98.8829C149.813 98.8829 145.787 97.5964 142.812 95.4932L137.098 96.9458L139.319 91.9727Z" fill="#F25A1B"/>
<path d="M160.219 86.6322C160.219 87.5821 160.989 88.3521 161.939 88.3521C162.888 88.3521 163.658 87.5821 163.658 86.6322C163.658 85.6824 162.888 84.9124 161.939 84.9124C160.989 84.9124 160.219 85.6824 160.219 86.6322Z" fill="#263238"/>
<path d="M154.252 88.3521C155.202 88.3521 155.972 87.582 155.972 86.6322C155.972 85.6824 155.202 84.9124 154.252 84.9124C153.302 84.9124 152.532 85.6824 152.532 86.6322C152.532 87.582 153.302 88.3521 154.252 88.3521Z" fill="#263238"/>
<path d="M144.846 86.6322C144.846 87.5821 145.616 88.3521 146.566 88.3521C147.516 88.3521 148.286 87.5821 148.286 86.6322C148.286 85.6824 147.516 84.9124 146.566 84.9124C145.616 84.9124 144.846 85.6824 144.846 86.6322Z" fill="#263238"/>
</svg>
