<svg width="14" height="10" viewBox="0 0 14 10" fill="none" xmlns="http://www.w3.org/2000/svg">
<path d="M7.96967 8.46967C7.67678 8.76256 7.67678 9.23744 7.96967 9.53033C8.26256 9.82322 8.73744 9.82322 9.03033 9.53033L13.0303 5.53033C13.1768 5.38388 13.25 5.19194 13.25 5C13.25 4.89831 13.2298 4.80134 13.1931 4.71291C13.1565 4.62445 13.1022 4.54158 13.0303 4.46967L9.03033 0.46967C8.73744 0.176776 8.26256 0.176776 7.96967 0.46967C7.67678 0.762563 7.67678 1.23744 7.96967 1.53033L10.6893 4.25L1 4.25C0.585786 4.25 0.25 4.58579 0.25 5C0.25 5.41421 0.585786 5.75 1 5.75L10.6893 5.75L7.96967 8.46967Z" fill="black"/>
</svg>
