<svg width="11" height="20" viewBox="0 0 11 20" fill="none" xmlns="http://www.w3.org/2000/svg">
<path fill-rule="evenodd" clip-rule="evenodd" d="M2.93912 0.512269C4.49851 0.334778 6.07301 0.334777 7.6324 0.512269L9.22772 0.693851C9.45623 0.719859 9.66016 0.849266 9.78101 1.04493C9.90186 1.2406 9.92626 1.4809 9.8472 1.69686L7.6447 7.71343H10C10.2461 7.71343 10.4765 7.8341 10.6166 8.03636C10.7567 8.23861 10.7887 8.49672 10.7022 8.72705L10.5117 9.23429C9.19051 12.7533 7.32257 16.0419 4.97677 18.9789L4.58607 19.4681C4.38722 19.717 4.05278 19.8132 3.75207 19.7078C3.45137 19.6025 3.25005 19.3186 3.25005 19V11.8476H1.42862C1.0401 11.8476 0.715899 11.5509 0.681555 11.1639L0.558929 9.78209C0.35145 7.44416 0.351451 5.09245 0.55893 2.75452L0.681555 1.37274C0.713047 1.01788 0.98983 0.73414 1.3438 0.693851L2.93912 0.512269ZM7.46276 2.00265C6.0161 1.83799 4.55542 1.83799 3.10876 2.00265L2.12158 2.11501L2.05306 2.88711C1.85341 5.13682 1.85341 7.39979 2.05306 9.6495L2.11501 10.3476H4.00005C4.41426 10.3476 4.75005 10.6834 4.75005 11.0976V16.8023C6.45215 14.46 7.85119 11.9102 8.91274 9.21343H6.57148C6.32653 9.21343 6.09702 9.09382 5.95671 8.89304C5.81641 8.69227 5.78298 8.43563 5.86718 8.20561L8.1109 2.07642L7.46276 2.00265Z" fill="black"/>
</svg>
