<svg width="12" height="17" viewBox="0 0 12 17" fill="none" xmlns="http://www.w3.org/2000/svg">
<path fill-rule="evenodd" clip-rule="evenodd" d="M4.88 1.13101C5.01629 0.974194 5.22792 0.905274 5.43042 0.951763C8.13705 1.57315 9.50516 4.53911 9.18341 7.19271C9.05834 8.22425 8.74937 9.03293 8.29438 9.67634C8.29159 9.68027 8.28881 9.6842 8.28602 9.68812C8.38936 9.63732 8.4847 9.58251 8.57393 9.5246C9.01787 9.23647 9.3437 8.8562 9.76795 8.36107C9.81923 8.30122 9.87194 8.2397 9.92648 8.17646C10.049 8.03433 10.2344 7.96269 10.4207 7.98545C10.607 8.00821 10.7696 8.12237 10.8544 8.28982C11.2275 9.02723 11.4375 9.86089 11.4375 10.742C11.4375 13.745 9.00305 16.1795 6 16.1795C2.99695 16.1795 0.5625 13.745 0.5625 10.742C0.5625 8.83917 1.54028 7.16511 3.01824 6.19428L3.0689 6.14322C3.09493 6.11699 3.12348 6.09339 3.15414 6.07276C3.80354 5.63578 4.26984 5.27838 4.58378 4.85806C4.88035 4.46099 5.0625 3.97663 5.0625 3.24197C5.0625 2.69801 4.96206 2.17882 4.77922 1.70105C4.70496 1.50701 4.74371 1.28783 4.88 1.13101ZM6.12841 2.43809C6.16735 2.70058 6.1875 2.96902 6.1875 3.24197C6.1875 4.19328 5.94172 4.91994 5.48512 5.53127C5.0563 6.10539 4.46271 6.54634 3.82849 6.97491L3.77427 7.02955C3.74522 7.05883 3.71303 7.08482 3.67829 7.10706C2.47986 7.87433 1.6875 9.2158 1.6875 10.742C1.6875 13.1237 3.61827 15.0545 6 15.0545C8.38173 15.0545 10.3125 13.1237 10.3125 10.742C10.3125 10.3521 10.2609 9.97478 10.1642 9.61623C9.87908 9.925 9.56433 10.223 9.18639 10.4683C8.49395 10.9177 7.62745 11.1742 6.375 11.1742C6.11831 11.1742 5.89418 11.0005 5.83023 10.7519C5.76629 10.5033 5.87875 10.2429 6.10358 10.1191C6.61269 9.83859 7.04424 9.49571 7.37584 9.02679C7.70675 8.55884 7.96028 7.93405 8.06659 7.05729C8.29673 5.15924 7.5112 3.28578 6.12841 2.43809Z" fill="#C21919"/>
</svg>
