<svg width="25" height="25" viewBox="0 0 25 25" fill="none" xmlns="http://www.w3.org/2000/svg">
<path d="M19.2433 15.1925C19.2433 16.4825 20.3033 17.5325 21.5933 17.5325C21.5933 21.2825 20.6533 22.2225 16.9033 22.2225H7.52334C3.77334 22.2225 2.83334 21.2825 2.83334 17.5325V17.0725C4.12334 17.0725 5.18334 16.0125 5.18334 14.7225C5.18334 13.4325 4.12334 12.3725 2.83334 12.3725V11.9125C2.84334 8.16247 3.77334 7.22247 7.52334 7.22247H16.8933C20.6433 7.22247 21.5833 8.16247 21.5833 11.9125V12.8525C20.2933 12.8525 19.2433 13.8925 19.2433 15.1925Z" stroke="#ACACAC" stroke-width="1.5" stroke-linecap="round" stroke-linejoin="round"/>
<path d="M16.5444 7.2225H7.45444L10.3844 4.2925C12.7744 1.9025 13.9744 1.9025 16.3644 4.2925L16.9644 4.8925C16.3344 5.5225 16.1844 6.4525 16.5444 7.2225Z" stroke="#ACACAC" stroke-width="1.5" stroke-linecap="round" stroke-linejoin="round"/>
<path d="M10.2122 7.22266L10.2123 22.2227" stroke="#ACACAC" stroke-width="1.5" stroke-linecap="round" stroke-linejoin="round" stroke-dasharray="5 5"/>
</svg>
