<svg width="24" height="24" viewBox="0 0 24 24" fill="none" xmlns="http://www.w3.org/2000/svg">
<g clip-path="url(#clip0_157_2216)">
<path d="M12 1.25C14.1261 1.25 16.2046 1.88048 17.9724 3.0617C19.7402 4.24293 21.1181 5.92185 21.9317 7.88615C22.7453 9.85046 22.9582 12.0119 22.5434 14.0972C22.1287 16.1825 21.1048 18.098 19.6014 19.6014C18.098 21.1048 16.1825 22.1287 14.0972 22.5434C12.0119 22.9582 9.85046 22.7453 7.88615 21.9317C5.92185 21.1181 4.24293 19.7402 3.0617 17.9724C1.88048 16.2046 1.25 14.1261 1.25 12C1.25132 9.14933 2.38434 6.41579 4.40007 4.40007C6.41579 2.38434 9.14933 1.25132 12 1.25Z" stroke="#C21919" stroke-linecap="round" stroke-linejoin="round"/>
<path d="M12.8948 6.70504C12.9075 6.49534 12.9601 6.29 13.0498 6.10004C13.5948 4.83004 15.4998 2.95504 16.9348 2.45504V2.41504C10.1998 2.41504 6.63477 6.59004 6.63477 12C6.6335 13.0256 6.92564 14.03 7.47671 14.8949C8.02778 15.7598 8.81477 16.449 9.7448 16.8812C10.6748 17.3133 11.7091 17.4704 12.7255 17.3338C13.7419 17.1973 14.698 16.7728 15.481 16.1105C16.264 15.4482 16.8411 14.5757 17.1444 13.5961C17.4476 12.6164 17.4643 11.5704 17.1924 10.5816C16.9205 9.59279 16.3714 8.70239 15.6099 8.01549C14.8484 7.3286 13.9063 6.87389 12.8948 6.70504Z" stroke="#C21919" stroke-linecap="round" stroke-linejoin="round"/>
</g>
<defs>
<clipPath id="clip0_157_2216">
<rect width="24" height="24" fill="white"/>
</clipPath>
</defs>
</svg>
